<svg xmlns="http://www.w3.org/2000/svg" xmlns:xlink="http://www.w3.org/1999/xlink" width="788" height="332" viewBox="0 0 788 332">
  <defs>
    <linearGradient id="linear-gradient" x1="0.5" y1="-0.44" x2="0.5" y2="2.832" gradientUnits="objectBoundingBox">
      <stop offset="0" stop-color="#dc1d28"/>
      <stop offset="1" stop-color="#ba2529"/>
    </linearGradient>
    <linearGradient id="linear-gradient-2" x1="0.5" y1="-1.777" x2="0.5" y2="5.702" xlink:href="#linear-gradient"/>
    <linearGradient id="linear-gradient-3" x1="0.5" y1="-1.225" x2="0.5" y2="3.948" xlink:href="#linear-gradient"/>
    <linearGradient id="linear-gradient-4" x1="0.501" y1="-1.214" x2="0.501" y2="3.889" xlink:href="#linear-gradient"/>
    <linearGradient id="linear-gradient-5" x1="0.5" y1="-0.816" x2="0.5" y2="3.31" xlink:href="#linear-gradient"/>
    <linearGradient id="linear-gradient-6" x1="0.5" y1="-0.989" x2="0.5" y2="1.565" xlink:href="#linear-gradient"/>
    <linearGradient id="linear-gradient-7" x1="0.5" y1="-2.169" x2="0.5" y2="2.219" xlink:href="#linear-gradient"/>
    <linearGradient id="linear-gradient-8" x1="0.5" y1="-2.214" x2="0.5" y2="2.317" xlink:href="#linear-gradient"/>
    <linearGradient id="linear-gradient-9" x1="0.5" y1="-1.416" x2="0.5" y2="1.596" xlink:href="#linear-gradient"/>
    <linearGradient id="linear-gradient-10" x1="0.5" y1="-2.207" x2="0.5" y2="2.267" xlink:href="#linear-gradient"/>
    <linearGradient id="linear-gradient-11" x1="0.501" y1="-2.052" x2="0.501" y2="2.064" xlink:href="#linear-gradient"/>
    <linearGradient id="linear-gradient-12" x1="0.501" y1="-0.972" x2="0.501" y2="1.491" xlink:href="#linear-gradient"/>
    <linearGradient id="linear-gradient-13" x1="0.5" y1="-3.177" x2="0.5" y2="2.317" gradientUnits="objectBoundingBox">
      <stop offset="0" stop-color="#00cce4"/>
      <stop offset="0.48" stop-color="#00a4e4"/>
      <stop offset="0.56" stop-color="#01a0e0"/>
      <stop offset="0.65" stop-color="#0396d3"/>
      <stop offset="0.74" stop-color="#0783be"/>
      <stop offset="0.83" stop-color="#0c6aa1"/>
      <stop offset="0.92" stop-color="#124a7c"/>
      <stop offset="1" stop-color="#192956"/>
    </linearGradient>
    <linearGradient id="linear-gradient-14" x1="0.499" y1="-4.577" x2="0.499" y2="2.742" xlink:href="#linear-gradient-13"/>
    <linearGradient id="linear-gradient-15" x1="0.5" y1="-4.622" x2="0.5" y2="2.772" xlink:href="#linear-gradient-13"/>
    <linearGradient id="linear-gradient-16" x1="0.502" y1="-4.622" x2="0.502" y2="2.772" xlink:href="#linear-gradient-13"/>
    <linearGradient id="linear-gradient-17" x1="0.5" y1="-3.249" x2="0.5" y2="1.935" xlink:href="#linear-gradient-13"/>
    <linearGradient id="linear-gradient-18" x1="0.499" y1="-3.132" x2="0.499" y2="2.296" xlink:href="#linear-gradient-13"/>
    <linearGradient id="linear-gradient-19" x1="0.5" y1="-2.997" x2="0.5" y2="2.26" xlink:href="#linear-gradient-13"/>
    <linearGradient id="linear-gradient-20" x1="0.5" y1="-4.622" x2="0.5" y2="2.772" xlink:href="#linear-gradient-13"/>
    <linearGradient id="linear-gradient-21" x1="0.5" y1="-3.082" x2="0.5" y2="2.288" xlink:href="#linear-gradient-13"/>
    <linearGradient id="linear-gradient-22" x1="0.499" y1="-4.593" x2="0.499" y2="2.745" xlink:href="#linear-gradient-13"/>
    <linearGradient id="linear-gradient-23" x1="0.501" y1="-3.773" x2="0.501" y2="2.492" xlink:href="#linear-gradient-13"/>
    <linearGradient id="linear-gradient-24" x1="0.5" y1="-4.613" x2="0.5" y2="2.769" xlink:href="#linear-gradient-13"/>
    <linearGradient id="linear-gradient-25" x1="0.502" y1="-4.589" x2="0.502" y2="2.749" xlink:href="#linear-gradient-13"/>
    <linearGradient id="linear-gradient-26" x1="0.499" y1="-4.616" x2="0.499" y2="2.757" xlink:href="#linear-gradient-13"/>
  </defs>
  <g id="Group_1242" data-name="Group 1242" transform="translate(-566 -51)">
    <text id="สวัสดีปีใหม่_ปี_2564_คร้าบ_ในปีใหม่นี้_น้องวายุขอให้พี่ๆทุกคน_โชคดี_แฮปปี้_ตลอดปีและตลอดไปเลยนะครับ" data-name="สวัสดีปีใหม่ ปี 2564 คร้าบ
ในปีใหม่นี้ น้องวายุขอให้พี่ๆทุกคน โชคดี แฮปปี้ ตลอดปีและตลอดไปเลยนะครับ" transform="translate(566 322)" fill="#00a4e4" font-size="22" font-family="KrungthaiFast-Regular, Krungthai Fast"><tspan x="285.551" y="22">สวัสดีปีใหม่ ปี 2564 คร้าบ</tspan><tspan x="67.982" y="52">ในปีใหม่นี้ น้องวายุขอให้พี่ๆทุกคน โชคดี แฮปปี้ ตลอดปีและตลอดไปเลยนะครับ</tspan></text>
    <g id="Layer_3" data-name="Layer 3" transform="translate(738 51)">
      <g id="Group_1170" data-name="Group 1170" transform="translate(161.563)" opacity="0.28">
        <path id="Path_2748" data-name="Path 2748" d="M279.383,56.926a55.2,55.2,0,0,0-16.377,1.942,30.851,30.851,0,0,0-12.672,7.019A32.348,32.348,0,0,0,242.2,78.465a53.406,53.406,0,0,0-2.885,18.583,83.12,83.12,0,0,0,.476,8.7,50.556,50.556,0,0,0,1.653,8.578,43.376,43.376,0,0,0,3.073,7.8,23.513,23.513,0,0,0,4.734,6.387,22.054,22.054,0,0,0,6.621,4.3,22.373,22.373,0,0,0,8.789,1.606,18.2,18.2,0,0,0,10.356-2.932,24.323,24.323,0,0,0,7.237-7.518,36.31,36.31,0,0,0,4.258-10.216,44.709,44.709,0,0,0,1.411-10.918,25.569,25.569,0,0,0-.99-7.369,17.64,17.64,0,0,0-2.839-5.724,12.719,12.719,0,0,0-4.492-3.735,12.938,12.938,0,0,0-5.864-1.326,13.507,13.507,0,0,0-6.192,1.372q-2.69,1.365-2.69,3.455a1.926,1.926,0,0,0,1.451,1.887c.975.351,2.043.78,3.213,1.326a10.778,10.778,0,0,1,3.213,2.34,6.6,6.6,0,0,1,1.466,4.726,7.463,7.463,0,0,1-2.5,5.958,9.522,9.522,0,0,1-6.48,2.176,8.329,8.329,0,0,1-4.3-1.084A10.317,10.317,0,0,1,257.789,104a12.8,12.8,0,0,1-1.934-3.969,15.549,15.549,0,0,1-.663-4.492,14.866,14.866,0,0,1,2.839-9.413,20.159,20.159,0,0,1,7.416-5.818,42.6,42.6,0,0,1,10.5-3.26q5.9-1.084,12.056-1.942t12.041-1.8a47.1,47.1,0,0,0,10.5-2.839,20.276,20.276,0,0,0,7.424-5.014,11.936,11.936,0,0,0,2.839-8.321,7.094,7.094,0,0,0-1.092-4.344,6.059,6.059,0,0,0-2.41-1.989,7.167,7.167,0,0,0-3.5-.476,7.962,7.962,0,0,0-2.456.335,14.585,14.585,0,0,0-1.942.78,18.99,18.99,0,0,1-1.84.78,6.34,6.34,0,0,1-2.082.328,6.036,6.036,0,0,1-4.211-1.84c-1.287-1.232-1.934-3.2-1.934-5.911a13.428,13.428,0,0,1,1.419-6.434,13.593,13.593,0,0,1,3.587-4.351,14.817,14.817,0,0,1,4.78-2.5,16.984,16.984,0,0,1,5.061-.78,20.322,20.322,0,0,1,8.461,1.653,19.13,19.13,0,0,1,6.145,4.274,17.8,17.8,0,0,1,3.735,6.052,19.308,19.308,0,0,1,1.232,6.668,35.093,35.093,0,0,1-1.8,11.776,25.135,25.135,0,0,1-5.194,8.75,27.934,27.934,0,0,1-8.375,6.1,51.9,51.9,0,0,1-11.3,3.829,22.834,22.834,0,0,1,4.539,8.3,38.6,38.6,0,0,1,1.606,11.869,37.775,37.775,0,0,1-3.4,15.363,40.435,40.435,0,0,1-10.216,13.811,53.325,53.325,0,0,1-16.938,9.9,66.814,66.814,0,0,1-23.6,3.829,67.846,67.846,0,0,1-20.9-3.073,46.72,46.72,0,0,1-16.377-8.984,41.456,41.456,0,0,1-10.731-14.419,46.221,46.221,0,0,1-3.9-19.387,43.779,43.779,0,0,1,2.082-13.9A41.333,41.333,0,0,1,214.8,72.055a43.421,43.421,0,0,1,7.837-8.414,57.294,57.294,0,0,1,8.937-6.052,50.688,50.688,0,0,1,8.89-3.829,49.061,49.061,0,0,1,7.751-1.848c-.881-.25-2.028-.639-3.447-1.178a32.87,32.87,0,0,1-4.539-2.176,39.581,39.581,0,0,1-4.913-3.33,23.472,23.472,0,0,1-4.4-4.593,23.832,23.832,0,0,1-3.166-6.1,23.145,23.145,0,0,1-1.232-7.8,22.8,22.8,0,0,1,2.745-11.144,25.352,25.352,0,0,1,7.564-8.414,36.527,36.527,0,0,1,11.3-5.3A50.6,50.6,0,0,1,261.985,0,68.22,68.22,0,0,1,276.638,1.37a34.313,34.313,0,0,1,10.138,3.782,16.907,16.907,0,0,1,5.958,5.623,12.969,12.969,0,0,1,1.942,6.816,12.657,12.657,0,0,1-.523,3.494A10.326,10.326,0,0,1,292.5,24.4a9.358,9.358,0,0,1-2.885,2.5,8.212,8.212,0,0,1-4.118.99,4.953,4.953,0,0,1-4.016-1.513,9.288,9.288,0,0,1-1.817-3.767,44.046,44.046,0,0,1-.881-4.882,21.74,21.74,0,0,0-1.178-4.874,8.578,8.578,0,0,0-2.792-3.782,9.2,9.2,0,0,0-5.724-1.513,10.606,10.606,0,0,0-5.576,1.606,15.55,15.55,0,0,0-4.679,4.539,23.878,23.878,0,0,0-3.221,7.019,31.723,31.723,0,0,0-1.193,8.906A21.78,21.78,0,0,0,256.027,38a20.011,20.011,0,0,0,4.773,6.948,26.008,26.008,0,0,0,7.845,4.96,35.389,35.389,0,0,0,10.777,2.55Z" transform="translate(-207.171 0.009)" fill="#58c7ed"/>
      </g>
      <path id="Path_2749" data-name="Path 2749" d="M159.806,147.18l6.044-.359V129.275a2.846,2.846,0,0,0-.172-1.076,1.474,1.474,0,0,0-.46-.624,1.559,1.559,0,0,0-.717-.289,4.781,4.781,0,0,0-.912-.055,9.015,9.015,0,0,0-1.809.257,15.808,15.808,0,0,0-2.277.717,18.717,18.717,0,0,0-2.41,1.146,11.821,11.821,0,0,0-2.168,1.56,7.8,7.8,0,0,0-1.56,1.879,4.328,4.328,0,0,0-.593,2.2,3.517,3.517,0,0,0,.281,1.56,2.261,2.261,0,0,0,.647.873,1.637,1.637,0,0,0,.741.343,3.033,3.033,0,0,0,.554.055,3.119,3.119,0,0,0,1.357-.328,8.578,8.578,0,0,0,.967-.608l.78-.6a1.6,1.6,0,0,1,.881-.3,2.426,2.426,0,0,1,.85.14,2.34,2.34,0,0,1,.827.507,2.807,2.807,0,0,1,.647.951,3.572,3.572,0,0,1,.265,1.466,4.391,4.391,0,0,1-.515,2.168,5.233,5.233,0,0,1-1.334,1.56,6.09,6.09,0,0,1-1.856,1.006,7.712,7.712,0,0,1-2.074.413,7.323,7.323,0,0,1-2.87-.351,5.763,5.763,0,0,1-2.176-1.31,5.662,5.662,0,0,1-1.365-2.082,7.4,7.4,0,0,1-.46-2.62,9.849,9.849,0,0,1,.827-4.055,11.7,11.7,0,0,1,2.277-3.369,15.769,15.769,0,0,1,3.392-2.636,22.663,22.663,0,0,1,4.2-1.911,28.855,28.855,0,0,1,4.726-1.17,33.76,33.76,0,0,1,4.921-.452,14.817,14.817,0,0,1,4.234.4,5.7,5.7,0,0,1,2.23,1.1,2.5,2.5,0,0,1,.9,1.412,7.161,7.161,0,0,1,.133,1.209q0,8.937,0,17.882,6.114-.32,12.236-.569V131.341a21.836,21.836,0,0,1,1.443-8.391,16.533,16.533,0,0,1,3.7-5.654,13.92,13.92,0,0,1,5.1-3.174,16.649,16.649,0,0,1,5.552-.983,25.436,25.436,0,0,1,3.611.242,14.49,14.49,0,0,1,2.995.78,6.239,6.239,0,0,1,2.043,1.232,2.339,2.339,0,0,1,.78,1.723,2.223,2.223,0,0,1-.148.827,2.612,2.612,0,0,1-.413.717,2.121,2.121,0,0,1-.616.507,1.443,1.443,0,0,1-.717.195,1.872,1.872,0,0,1-1.068-.312,4.585,4.585,0,0,1-.873-.78,12.8,12.8,0,0,1-.78-1.045,6.753,6.753,0,0,0-1.006-1.076,4.827,4.827,0,0,0-1.123-.78,3.314,3.314,0,0,0-1.5-.32,4.975,4.975,0,0,0-3.229.99,6.169,6.169,0,0,0-1.84,2.885,19.168,19.168,0,0,0-.78,4.726c-.125,1.879-.195,4.04-.195,6.465v15.176c2.675-.1,4.016-.14,6.691-.226v2.573c-2.675.086-4.008.133-6.683.234v17.882a2,2,0,0,0,.413,1.341,1.458,1.458,0,0,0,1.279.437,5.3,5.3,0,0,0,1.731-.39c.53-.226,1-.437,1.4-.632l.569,1.045c-.491.32-1.068.663-1.723,1.022s-1.372.7-2.16,1.037a20.1,20.1,0,0,1-2.534.858,13.71,13.71,0,0,1-2.807.468,10.177,10.177,0,0,1-3.665-.281,4.811,4.811,0,0,1-2.152-1.248,4.07,4.07,0,0,1-1.014-1.911,9.543,9.543,0,0,1-.242-2.215V148.334q-6.13.281-12.236.616v15.1a15.854,15.854,0,0,1-1.653,7.33,17.577,17.577,0,0,1-4.507,5.568,23.824,23.824,0,0,1-6.722,3.852,35.373,35.373,0,0,1-8.344,2.028,19.285,19.285,0,0,1-3.244.164,12.618,12.618,0,0,1-2.745-.374,5.194,5.194,0,0,1-1.9-.866,1.669,1.669,0,0,1-.71-1.326,4.562,4.562,0,0,1,.164-1.185,4.141,4.141,0,0,1,.5-1.139,3.6,3.6,0,0,1,.78-.9,2.2,2.2,0,0,1,1.076-.452.717.717,0,0,1,.647.273,5.718,5.718,0,0,1,.577.78c.195.328.421.671.678,1.045a4.118,4.118,0,0,0,.99.99,4.43,4.43,0,0,0,1.474.678,5.459,5.459,0,0,0,2.152.078,11.253,11.253,0,0,0,4.39-1.419,9.576,9.576,0,0,0,3.034-2.8,12.072,12.072,0,0,0,1.778-3.946,19.347,19.347,0,0,0,.593-4.827V149.519l-6.044.39C159.806,148.833,159.806,148.279,159.806,147.18Z" transform="translate(-32.354 -24.902)" fill="url(#linear-gradient)"/>
      <path id="Path_2750" data-name="Path 2750" d="M239.559,145.79a9.358,9.358,0,0,0-2.1.273,7.885,7.885,0,0,0-1.661.608,4.079,4.079,0,0,0-1.1.78,1.3,1.3,0,0,0-.406.78.632.632,0,0,0,.515.608c.351.117.733.25,1.154.406a3.852,3.852,0,0,1,1.146.671,1.677,1.677,0,0,1,.515,1.357,2.339,2.339,0,0,1-.289,1.123,3.244,3.244,0,0,1-.78.912,3.79,3.79,0,0,1-1.131.632,4.446,4.446,0,0,1-1.349.257,4.047,4.047,0,0,1-3.01-1.022,3.735,3.735,0,0,1-1.146-2.9,4.679,4.679,0,0,1,1.068-3.057,8.383,8.383,0,0,1,2.784-2.137,15.706,15.706,0,0,1,3.9-1.271,24.721,24.721,0,0,1,4.328-.46,24.377,24.377,0,0,1,4.96.421,13.678,13.678,0,0,1,4.18,1.505,8.344,8.344,0,0,1,2.893,2.659,6.925,6.925,0,0,1,1.084,3.9v16.158a5.238,5.238,0,0,0,0,.577,1.716,1.716,0,0,0,.164.569,1.162,1.162,0,0,0,.405.421,1.4,1.4,0,0,0,.78.156,1.848,1.848,0,0,0,1.115-.406,7.865,7.865,0,0,0,.92-.78l.834.585c-.335.406-.733.85-1.2,1.334a9.663,9.663,0,0,1-1.7,1.373,10.84,10.84,0,0,1-2.34,1.1,10.247,10.247,0,0,1-3.034.5,6.551,6.551,0,0,1-3.728-.983,4.874,4.874,0,0,1-2.129-3.26,14.192,14.192,0,0,1-2.223,2.137,13.3,13.3,0,0,1-2.339,1.427,12.214,12.214,0,0,1-2.418.842,13.773,13.773,0,0,1-2.449.32,11.082,11.082,0,0,1-3.119-.3,7.362,7.362,0,0,1-2.675-1.263A6.324,6.324,0,0,1,228.088,170a8.391,8.391,0,0,1-.71-3.665,7.51,7.51,0,0,1,1.209-4.383,10.48,10.48,0,0,1,3.119-2.94,23.309,23.309,0,0,1,4.429-2.09q2.48-.873,5.077-1.825a5.521,5.521,0,0,0,2.823-2.028,4.874,4.874,0,0,0,.881-2.706,4.25,4.25,0,0,0-1.443-3.384A5.7,5.7,0,0,0,239.559,145.79Zm5.279,12.477a1.232,1.232,0,0,0-.53-1.084,2.254,2.254,0,0,0-1.365-.343,5.521,5.521,0,0,0-4.063,1.911A6.753,6.753,0,0,0,237.61,161a9.154,9.154,0,0,0-.468,3.057,11.378,11.378,0,0,0,.273,2.768,4.952,4.952,0,0,0,.78,1.716,2.558,2.558,0,0,0,1.115.873,3.47,3.47,0,0,0,1.334.218,3.782,3.782,0,0,0,1.638-.445,5.084,5.084,0,0,0,1.334-1.029,5.006,5.006,0,0,0,.9-1.38,3.6,3.6,0,0,0,.335-1.5V158.3Z" transform="translate(-50.056 -31.552)" fill="url(#linear-gradient-2)"/>
      <path id="Path_2751" data-name="Path 2751" d="M273.382,148.157a2.4,2.4,0,0,0-.445-1.443,1.755,1.755,0,0,0-1.521-.6,2.433,2.433,0,0,0-.967.172,5.651,5.651,0,0,0-.866.491l-.694-.71a17.153,17.153,0,0,1,1.716-1.076,14.139,14.139,0,0,1,2.051-.944,16.506,16.506,0,0,1,2.34-.663,13.311,13.311,0,0,1,2.659-.265,7.361,7.361,0,0,1,2.566.4,7.018,7.018,0,0,1,1.786.951,4.374,4.374,0,0,1,1.076,1.17,3.057,3.057,0,0,1,.437,1.045,8.344,8.344,0,0,1,1.56-1.45,10.561,10.561,0,0,1,2-1.123,11.308,11.308,0,0,1,2.34-.717,11.526,11.526,0,0,1,2.511-.25,11.908,11.908,0,0,1,4.827.975,9.966,9.966,0,0,1,3.712,2.839,13.016,13.016,0,0,1,2.386,4.632,21.914,21.914,0,0,1,.842,6.379,21.679,21.679,0,0,1-1.014,7.1,13.609,13.609,0,0,1-2.659,4.741,9.741,9.741,0,0,1-3.767,2.644,11.7,11.7,0,0,1-4.32.78,15.425,15.425,0,0,1-3.213-.343,13.164,13.164,0,0,1-2.386-.78,10.138,10.138,0,0,1-1.669-.936c-.444-.312-.78-.577-1.061-.78v13.92a3.774,3.774,0,0,1-.133.881,2.1,2.1,0,0,1-.655.983,4.32,4.32,0,0,1-1.56.78,9.311,9.311,0,0,1-2.784.351,8.859,8.859,0,0,1-2.784-.343,4.429,4.429,0,0,1-1.56-.842,2.152,2.152,0,0,1-.671-.99,3.384,3.384,0,0,1-.133-.78Q273.382,166.249,273.382,148.157ZM283.613,166.3a2.566,2.566,0,0,0,.234.78,4.516,4.516,0,0,0,.725,1.17,5.24,5.24,0,0,0,1.287,1.076,3.681,3.681,0,0,0,1.918.476,3.509,3.509,0,0,0,2.5-.936,6.87,6.87,0,0,0,1.7-2.581,15.464,15.464,0,0,0,.967-3.813,33.827,33.827,0,0,0,.3-4.679,29.438,29.438,0,0,0-.382-5.17,11.3,11.3,0,0,0-1.115-3.423,4.866,4.866,0,0,0-1.755-1.887,4.492,4.492,0,0,0-2.277-.6,3.252,3.252,0,0,0-1.466.359,5.46,5.46,0,0,0-1.318.881,4.679,4.679,0,0,0-.951,1.178,2.6,2.6,0,0,0-.359,1.256Z" transform="translate(-59.196 -31.502)" fill="url(#linear-gradient-3)"/>
      <path id="Path_2752" data-name="Path 2752" d="M320.87,148.458a2.425,2.425,0,0,0-.452-1.466,1.786,1.786,0,0,0-1.513-.639,2.394,2.394,0,0,0-.967.164,5.358,5.358,0,0,0-.866.468l-.7-.725c.515-.351,1.084-.7,1.716-1.053a14.329,14.329,0,0,1,2.043-.9,15.831,15.831,0,0,1,2.34-.624,12.883,12.883,0,0,1,2.667-.218,7.339,7.339,0,0,1,2.566.445,6.635,6.635,0,0,1,1.778,1.006,4.5,4.5,0,0,1,1.084,1.2,3.2,3.2,0,0,1,.437,1.068,8.238,8.238,0,0,1,1.56-1.443,10.747,10.747,0,0,1,2-1.107,11.268,11.268,0,0,1,2.3-.686,12.3,12.3,0,0,1,7.33.873,10.465,10.465,0,0,1,3.72,2.987,14.271,14.271,0,0,1,2.386,4.827,23.741,23.741,0,0,1,.842,6.6,22.723,22.723,0,0,1-1,7.284,13.6,13.6,0,0,1-2.651,4.788,9.155,9.155,0,0,1-3.759,2.558,11.191,11.191,0,0,1-4.312.632,15.34,15.34,0,0,1-3.213-.484,13.131,13.131,0,0,1-2.378-.9,10.767,10.767,0,0,1-1.669-1.022c-.445-.335-.78-.616-1.068-.834v14.131a3.775,3.775,0,0,1-.133.889,1.949,1.949,0,0,1-.647.967,4.086,4.086,0,0,1-1.56.78,8.742,8.742,0,0,1-2.784.211,9.055,9.055,0,0,1-2.784-.483,4.8,4.8,0,0,1-1.56-.928,2.34,2.34,0,0,1-.663-1.037,3.121,3.121,0,0,1-.133-.819ZM331.117,167.1a2.716,2.716,0,0,0,.234.827,5.147,5.147,0,0,0,.733,1.217,5.6,5.6,0,0,0,1.287,1.139,3.7,3.7,0,0,0,1.918.561,3.353,3.353,0,0,0,2.5-.858,6.95,6.95,0,0,0,1.692-2.573,15.916,15.916,0,0,0,.959-3.9,35.085,35.085,0,0,0,.289-4.757,30.936,30.936,0,0,0-.39-5.3,11.7,11.7,0,0,0-1.123-3.525,5.061,5.061,0,0,0-1.747-1.965,4.414,4.414,0,0,0-2.285-.655,3.12,3.12,0,0,0-1.458.328,5.459,5.459,0,0,0-1.318.866,4.421,4.421,0,0,0-.944,1.185,2.612,2.612,0,0,0-.366,1.263Z" transform="translate(-69.65 -31.577)" fill="url(#linear-gradient-4)"/>
      <path id="Path_2753" data-name="Path 2753" d="M367.462,185.165a8.024,8.024,0,0,0,4.086-.663,12.337,12.337,0,0,0,3.587-2.534,22.2,22.2,0,0,0,3.2-4.071,49.336,49.336,0,0,0,2.854-5.248c-2.028-6.083-4.11-12.2-6.652-18.053a120.363,120.363,0,0,0-6.527-13.3,15.815,15.815,0,0,0-3.439-4.383,5.662,5.662,0,0,0-3.377-1.505,3.9,3.9,0,0,0-1.716.32,7.37,7.37,0,0,0-1.287.78l-.78-.834a10.921,10.921,0,0,1,1.56-1.115,13.849,13.849,0,0,1,2.152-1.045,15.027,15.027,0,0,1,2.776-.78,16.1,16.1,0,0,1,3.4-.25,14.91,14.91,0,0,1,2.067.187,10.3,10.3,0,0,1,2.34.647,11.362,11.362,0,0,1,2.339,1.295,10.551,10.551,0,0,1,2.223,2.2,46.705,46.705,0,0,1,4.9,8.492c2.074,4.39,3.79,8.921,5.5,13.452.616-1.677,1.224-3.345,1.825-5.022s1.2-3.307,1.817-4.9,1.24-3.119,1.872-4.6,1.287-2.87,1.95-4.164a33.947,33.947,0,0,1,2.137-3.634,12.953,12.953,0,0,1,2.394-2.644,9.218,9.218,0,0,1,2.924-1.6,10.769,10.769,0,0,1,3.712-.483,4.679,4.679,0,0,1,2.55.725,2.246,2.246,0,0,1,.983,1.973,3.961,3.961,0,0,1-.39,1.887,1.139,1.139,0,0,1-1.076.7,1.092,1.092,0,0,1-.881-.452c-.211-.281-.421-.593-.632-.92a4.446,4.446,0,0,0-.78-.928,1.794,1.794,0,0,0-1.24-.46,4.5,4.5,0,0,0-3.369,1.482,16.375,16.375,0,0,0-2.9,4.188,51.528,51.528,0,0,0-2.628,6.192q-1.271,3.533-2.55,7.479c-.858,2.62-1.755,5.318-2.69,8.071s-1.9,5.381-2.963,7.939a64.2,64.2,0,0,1-3.533,7.19,27.9,27.9,0,0,1-4.289,5.732,16.438,16.438,0,0,1-5.233,3.618,12.922,12.922,0,0,1-6.379.9,19.868,19.868,0,0,1-2.948-.491,15.361,15.361,0,0,1-2.558-.85,7.736,7.736,0,0,1-1.856-1.107,2.075,2.075,0,0,1-.827-1.263,2.892,2.892,0,0,1,.039-.967,2.83,2.83,0,0,1,.343-.866,1.958,1.958,0,0,1,.647-.616,1.622,1.622,0,0,1,.944-.195.92.92,0,0,1,.616.343,8.588,8.588,0,0,1,.616.78c.218.312.468.647.733,1.006a6.239,6.239,0,0,0,1.006,1.037,6.339,6.339,0,0,0,1.427.85A6.237,6.237,0,0,0,367.462,185.165Z" transform="translate(-78.685 -28.987)" fill="url(#linear-gradient-5)"/>
      <path id="Path_2754" data-name="Path 2754" d="M27.94,219.209q0-5.069-.062-9.288c-.047-2.815-.086-5.272-.133-7.362s-.094-3.759-.148-4.975-.07-1.95-.07-2.176a3.9,3.9,0,0,0-2.285-.78H22.708a12.251,12.251,0,0,0-4.219.99,19.417,19.417,0,0,0-4.78,2.745,16.563,16.563,0,0,0-3.9,4.383A10.808,10.808,0,0,0,8.2,208.526a8.219,8.219,0,0,0,.421,2.917A4.3,4.3,0,0,0,9.63,213a2.511,2.511,0,0,0,1.154.632,3.945,3.945,0,0,0,.827.109,4.141,4.141,0,0,0,2.059-.585,12.913,12.913,0,0,0,1.458-1.092l1.224-1.076a2.152,2.152,0,0,1,1.334-.538,3.034,3.034,0,0,1,1.279.265,3.416,3.416,0,0,1,1.256.936,5.373,5.373,0,0,1,.975,1.723,7.8,7.8,0,0,1,.4,2.659,9.311,9.311,0,0,1-.78,3.9,9.506,9.506,0,0,1-2.012,2.854,9.007,9.007,0,0,1-2.807,1.817,10.208,10.208,0,0,1-3.119.78,9.358,9.358,0,0,1-4.344-.655,8.719,8.719,0,0,1-3.275-2.41A10.816,10.816,0,0,1,3.2,218.508a15.9,15.9,0,0,1-.7-4.788,24.393,24.393,0,0,1,2.184-10.637,22.241,22.241,0,0,1,5.833-7.6,24.175,24.175,0,0,1,8.4-4.5,33.47,33.47,0,0,1,9.826-1.482,36,36,0,0,1,7.533.632,16.782,16.782,0,0,1,4.827,1.723,8.874,8.874,0,0,1,2.9,2.55,19.5,19.5,0,0,1,1.8,3.08q2.971,6.48,5.919,12.961,2.784,6.106,5.537,12.22,2.55,5.646,5.186,11.284,2.527,5.373,4.913,10.091v-7.479q0-8.071.055-16.15c0-2.893.094-5.724.257-8.5a55.369,55.369,0,0,1,.959-7.861,28.721,28.721,0,0,1,2.207-6.785,16.431,16.431,0,0,1,9.982-8.812,27.3,27.3,0,0,1,8.7-1.232,27.59,27.59,0,0,1,4.679.382,15.924,15.924,0,0,1,3.743,1.076,7.1,7.1,0,0,1,2.48,1.723,3.314,3.314,0,0,1,.9,2.269,6.808,6.808,0,0,1-.226,1.677,5.459,5.459,0,0,1-.686,1.56,4.258,4.258,0,0,1-1.139,1.193,2.745,2.745,0,0,1-1.56.491c-.507,0-.959-.335-1.38-1.037s-.936-1.474-1.56-2.34a10.044,10.044,0,0,0-2.449-2.34,7.159,7.159,0,0,0-4.149-1.037,14.037,14.037,0,0,0-6.761,1.489,11.7,11.7,0,0,0-4.367,4.18,20.315,20.315,0,0,0-2.456,6.582,53.472,53.472,0,0,0-1.014,8.578c-.086,2.168-.14,4.3-.195,6.356s-.1,4.141-.125,6.239,0,4.3-.047,6.558,0,4.679,0,7.284v9.849q0,4.351.125,7.135a76.013,76.013,0,0,0,4.445,6.714A34.658,34.658,0,0,0,82.1,266.7a15.714,15.714,0,0,0,4.281,2.893,8.578,8.578,0,0,0,4.367.7,4.82,4.82,0,0,0,1.357-.343,8.856,8.856,0,0,0,1.154-.569,8.377,8.377,0,0,0,1.115-.78l1.56,1.8c-.468.382-1.131.85-1.989,1.411a25.475,25.475,0,0,1-3.119,1.692,32.925,32.925,0,0,1-4.2,1.56,29.758,29.758,0,0,1-5.178,1.061,15.043,15.043,0,0,1-7.8-1.1,24.955,24.955,0,0,1-7.182-4.773,46.72,46.72,0,0,1-6.6-7.72,108.962,108.962,0,0,1-6.067-9.888c-2.012-3.681-3.9-7.494-5.607-11.308-1.77-3.9-3.525-7.915-5.209-11.885q-2.456-5.779-4.843-11.581-2.34-5.646-4.523-10.426,0,3.19.039,6.605V238q0,4.57-.218,8.945a60.83,60.83,0,0,1-.967,8.344,38.258,38.258,0,0,1-2.2,7.447,21.437,21.437,0,0,1-3.9,6.239,21.421,21.421,0,0,1-6.052,4.632,28.113,28.113,0,0,1-8.656,2.706,23.994,23.994,0,0,1-4.648.413,12.476,12.476,0,0,1-3.72-.639,5.56,5.56,0,0,1-2.449-1.56A3.79,3.79,0,0,1,0,271.965a9.794,9.794,0,0,1,.226-2A7.861,7.861,0,0,1,.9,268.035a6.028,6.028,0,0,1,1.1-1.56,2.706,2.706,0,0,1,1.56-.78.975.975,0,0,1,.92.445,10.015,10.015,0,0,1,.9,1.318c.312.53.678,1.1,1.1,1.716a7.861,7.861,0,0,0,1.5,1.645,5.911,5.911,0,0,0,2.121,1.115,6.824,6.824,0,0,0,2.995.117,14.855,14.855,0,0,0,6.73-2.612,14.887,14.887,0,0,0,4.336-5.147,25.492,25.492,0,0,0,2.417-7.369,70.029,70.029,0,0,0,.967-9.358c.1-2.339.179-4.617.211-6.808s.078-4.422.117-6.683.055-4.617.062-7.065S27.933,221.986,27.94,219.209Z" transform="translate(0.005 -41.212)" fill="url(#linear-gradient-6)"/>
      <path id="Path_2755" data-name="Path 2755" d="M131.368,247.7a13.538,13.538,0,0,0,.468,3.423,19.16,19.16,0,0,0,1.365,3.657,17.649,17.649,0,0,0,2.23,3.439,15.036,15.036,0,0,0,3.057,2.823,13.42,13.42,0,0,0,3.837,1.84,12.93,12.93,0,0,0,4.632.46,13.419,13.419,0,0,0,3.268-.608,14.655,14.655,0,0,0,2.823-1.256,20.928,20.928,0,0,0,2.519-1.731c.78-.647,1.622-1.334,2.425-2.059l1.256,1.092a37.716,37.716,0,0,1-2.979,3.462,27.443,27.443,0,0,1-4.39,3.665,29.034,29.034,0,0,1-6,3.065,28.354,28.354,0,0,1-7.8,1.669,23.4,23.4,0,0,1-8.524-.842,18.669,18.669,0,0,1-7.346-4.086,20.533,20.533,0,0,1-5.124-7.486,28.277,28.277,0,0,1-1.9-11,29.993,29.993,0,0,1,1.185-8.531,28.854,28.854,0,0,1,3.166-7.081,26.975,26.975,0,0,1,4.679-5.576,29.212,29.212,0,0,1,5.568-4.016,27.957,27.957,0,0,1,5.966-2.464,23.95,23.95,0,0,1,5.864-.92,23.676,23.676,0,0,1,6.48.624,14.17,14.17,0,0,1,4.593,1.981,8.407,8.407,0,0,1,2.737,2.963,7.432,7.432,0,0,1,.889,3.587,6.909,6.909,0,0,1-1.372,4.141,13.257,13.257,0,0,1-3.634,3.314Q141.265,241.39,131.368,247.7Zm10.138-10.575a7.518,7.518,0,0,0,1.084-.78,2.932,2.932,0,0,0,.686-.912,4.944,4.944,0,0,0,.382-1.287,12.7,12.7,0,0,0,.133-1.9,15.3,15.3,0,0,0-.265-2.714,10.59,10.59,0,0,0-.928-2.792,6.785,6.785,0,0,0-1.645-2.16,3.455,3.455,0,0,0-2.41-.78,4.82,4.82,0,0,0-3.119,1.17,8.664,8.664,0,0,0-2.129,2.823,18.154,18.154,0,0,0-1.318,3.9c-.328,1.458-.569,2.917-.78,4.383a36.851,36.851,0,0,0-.312,4.219c-.039,1.341-.062,2.488-.062,3.416q5.35-3.361,10.731-6.59Z" transform="translate(-25.354 -48.124)" fill="url(#linear-gradient-7)"/>
      <path id="Path_2756" data-name="Path 2756" d="M239.578,231.721a23.325,23.325,0,0,0-.452-5.069,22.489,22.489,0,0,0-.975-3.33,21.963,21.963,0,0,0-.983-2.176,3.548,3.548,0,0,1-.452-1.606,1.419,1.419,0,0,1,.608-1.17,5.717,5.717,0,0,1,1.435-.78,7.728,7.728,0,0,1,1.708-.476,8.735,8.735,0,0,1,1.435-.148,4.375,4.375,0,0,1,2.113.367,2.558,2.558,0,0,1,1.061,1.435,14.621,14.621,0,0,1,.624,3.556c.117,1.474.172,3.041.172,4.718a74.7,74.7,0,0,1-.46,7.861,71.733,71.733,0,0,1-1.443,8.6,62.94,62.94,0,0,1-2.527,8.4,34.251,34.251,0,0,1-3.7,7.237,19.5,19.5,0,0,1-5,5.124,12.321,12.321,0,0,1-11.479,1.115,12.945,12.945,0,0,1-4-2.761,18.965,18.965,0,0,1-3.119-4.2,35.358,35.358,0,0,1-2.34-5.217,38.216,38.216,0,0,1-2.683,5.459,25.023,25.023,0,0,1-3.361,4.429,15.347,15.347,0,0,1-4.063,3.041,11.7,11.7,0,0,1-4.8,1.263,11.55,11.55,0,0,1-5.615-1.037,13.21,13.21,0,0,1-4.3-3.353,21.679,21.679,0,0,1-3.205-5.124,46.3,46.3,0,0,1-2.34-6.239,66.79,66.79,0,0,1-1.614-6.839q-.647-3.517-1.084-6.824t-.733-6.176c-.195-1.911-.367-3.6-.593-4.983a7.635,7.635,0,0,0-1.022-2.956,2.41,2.41,0,0,0-2.277-1,3.229,3.229,0,0,0-1.466.327,8.531,8.531,0,0,0-1.31.85l-1.053-1.178a30.248,30.248,0,0,1,2.6-1.879,21.266,21.266,0,0,1,3.119-1.638,22.561,22.561,0,0,1,3.572-1.178,18.154,18.154,0,0,1,4.024-.507,10.341,10.341,0,0,1,4.882.889,8.305,8.305,0,0,1,2.932,2.378,9.116,9.116,0,0,1,1.56,3.08,25.647,25.647,0,0,1,.639,2.979c.546,4.2,1.084,8.407,1.755,12.587a87.424,87.424,0,0,0,1.864,9.069,20.221,20.221,0,0,0,2.176,5.459,3.184,3.184,0,0,0,2.792,1.762,3.314,3.314,0,0,0,2.067-.92,9.935,9.935,0,0,0,1.918-2.425,23.333,23.333,0,0,0,1.723-3.7,38.994,38.994,0,0,0,1.427-4.773c-.335-1.716-.616-3.423-.85-5.108s-.437-3.314-.616-4.866-.351-3-.522-4.344-.343-2.542-.546-3.572q-.733-4.422.9-6.66c1.1-1.489,3.283-2.254,6.574-2.293a16.378,16.378,0,0,1,3.65.312,5.069,5.069,0,0,1,2.456,1.287,6.746,6.746,0,0,1,1.56,2.6,21.313,21.313,0,0,1,.951,4.227c.561,4.172,1.162,8.352,1.84,12.477.6,3.665,1.232,6.761,1.9,9.264a22.756,22.756,0,0,0,2.184,5.732,3.248,3.248,0,0,0,2.792,1.926,4.25,4.25,0,0,0,3.174-2,18.218,18.218,0,0,0,2.527-5.209,42.581,42.581,0,0,0,1.645-7.424A63.951,63.951,0,0,0,239.578,231.721Z" transform="translate(-37.488 -47.758)" fill="url(#linear-gradient-8)"/>
      <path id="Path_2757" data-name="Path 2757" d="M349.3,219.977a89.046,89.046,0,0,1-1.9,18.178,82.422,82.422,0,0,1-5.326,16.291,64.423,64.423,0,0,1-8.11,13.694,69.922,69.922,0,0,1-10.239,10.426,43.856,43.856,0,0,1-11.7,6.613,35.38,35.38,0,0,1-12.477,2.246,16.307,16.307,0,0,1-7.471-1.56,4.5,4.5,0,0,1-2.636-4.032,5.326,5.326,0,0,1,.335-1.872,5.95,5.95,0,0,1,.873-1.614,4.367,4.367,0,0,1,1.318-1.131,3.377,3.377,0,0,1,1.645-.421,2.1,2.1,0,0,1,1.731.975c.46.647.944,1.349,1.458,2.113A11.029,11.029,0,0,0,298.675,282a4.492,4.492,0,0,0,3.018,1,18.5,18.5,0,0,0,5.163-.7,27.191,27.191,0,0,0,5.4-2.137,38.787,38.787,0,0,0,5.459-3.439,59.942,59.942,0,0,0,5.342-4.546c-1.131-3.782-2.339-7.564-3.564-11.308-1.349-4.11-2.768-8.227-4.234-12.3s-2.956-7.978-4.562-11.908c-1.56-3.813-3.073-7.206-4.554-10.138a44.4,44.4,0,0,0-4.281-7.089q-2.043-2.667-3.642-2.667a3.509,3.509,0,0,0-1.614.3,12.6,12.6,0,0,0-1.341.858l-1.092-1.263c.725-.577,1.5-1.162,2.293-1.77a16.009,16.009,0,0,1,2.768-1.669A18.716,18.716,0,0,1,303.066,212a25.025,25.025,0,0,1,5.256-.46,14.037,14.037,0,0,1,6.239,1.427,13.257,13.257,0,0,1,5.233,5.194,68.122,68.122,0,0,1,3.54,6.746q1.833,3.946,3.712,8.82t3.774,10.559q1.989,5.942,3.829,11.939a84.487,84.487,0,0,0,5.459-13.951,62.55,62.55,0,0,0,2.02-15.324,22.746,22.746,0,0,0-.4-4.835,23.74,23.74,0,0,0-.881-3.423c-.328-.951-.624-1.755-.881-2.425a5.257,5.257,0,0,1-.39-1.778,1.606,1.606,0,0,1,.655-1.295,4.851,4.851,0,0,1,1.56-.834,10.684,10.684,0,0,1,1.895-.413,11.851,11.851,0,0,1,1.607-.109,3.9,3.9,0,0,1,2.277.593,3.392,3.392,0,0,1,1.178,1.638,8.579,8.579,0,0,1,.445,2.558C349.279,217.622,349.318,218.76,349.3,219.977Z" transform="translate(-63.723 -46.565)" fill="url(#linear-gradient-9)"/>
      <path id="Path_2758" data-name="Path 2758" d="M390.705,246.023a13.84,13.84,0,0,0,.491,3.377,21,21,0,0,0,3.65,7.338,18.764,18.764,0,0,0,3.08,3.166,16.375,16.375,0,0,0,3.86,2.34,14.1,14.1,0,0,0,4.632,1.092,12.4,12.4,0,0,0,3.268-.164,12.085,12.085,0,0,0,2.815-.873,16.736,16.736,0,0,0,2.511-1.427c.78-.546,1.6-1.139,2.4-1.778l1.263,1.279a30.009,30.009,0,0,1-2.956,3.119,21.305,21.305,0,0,1-4.359,3.119,23.222,23.222,0,0,1-5.981,2.2,27.591,27.591,0,0,1-16.338-1.56,23.5,23.5,0,0,1-12.6-12.75,26.9,26.9,0,0,1-1.973-10.559A25.734,25.734,0,0,1,375.662,236a23.746,23.746,0,0,1,7.736-11.448,28.16,28.16,0,0,1,5.545-3.548,27.483,27.483,0,0,1,5.958-2.082,25.017,25.017,0,0,1,12.345.312,15.113,15.113,0,0,1,4.609,2.238,9.3,9.3,0,0,1,2.753,3.166,8.165,8.165,0,0,1,.92,3.712,6.668,6.668,0,0,1-1.341,4.118,11.526,11.526,0,0,1-3.611,3.073Q400.617,240.837,390.705,246.023Zm10.083-9.4a6.957,6.957,0,0,0,1.076-.71,2.48,2.48,0,0,0,.678-.85,4.617,4.617,0,0,0,.374-1.256,12.476,12.476,0,0,0,.117-1.872,14.186,14.186,0,0,0-.289-2.714,11.035,11.035,0,0,0-.936-2.839,7.408,7.408,0,0,0-1.669-2.238,3.657,3.657,0,0,0-2.417-.944,4.632,4.632,0,0,0-3.119.959,7.7,7.7,0,0,0-2.106,2.628,15.76,15.76,0,0,0-1.295,3.7,38.321,38.321,0,0,0-.717,4.2c-.164,1.411-.257,2.761-.289,4.063s-.039,2.4-.039,3.3q5.342-2.7,10.629-5.428Z" transform="translate(-82.44 -48.054)" fill="url(#linear-gradient-10)"/>
      <path id="Path_2759" data-name="Path 2759" d="M453.286,223.923a11.791,11.791,0,0,0-3.166.289,10.637,10.637,0,0,0-2.5.912,5.622,5.622,0,0,0-1.653,1.279,2.1,2.1,0,0,0-.6,1.357,1.185,1.185,0,0,0,.78,1.115c.523.242,1.107.522,1.739.834A5.989,5.989,0,0,1,449.621,231a3.4,3.4,0,0,1,.78,2.441,4.336,4.336,0,0,1-.421,1.926,4.773,4.773,0,0,1-2.854,2.48,5.569,5.569,0,0,1-2.035.273,6.239,6.239,0,0,1-4.554-2.145,7.541,7.541,0,0,1-1.755-5.131,8.258,8.258,0,0,1,1.56-5.163,11.978,11.978,0,0,1,4.18-3.439,20.61,20.61,0,0,1,5.849-1.9,31.973,31.973,0,0,1,14.037.663,19.176,19.176,0,0,1,6.317,3.049,15.285,15.285,0,0,1,4.39,5.116,15.464,15.464,0,0,1,1.653,7.33q.047,14.817.1,29.688a8.467,8.467,0,0,0,.047,1.053,4.008,4.008,0,0,0,.257,1.084,2.191,2.191,0,0,0,.608.85,1.981,1.981,0,0,0,1.154.444,2.2,2.2,0,0,0,1.677-.522,11.584,11.584,0,0,0,1.372-1.3l1.263,1.256c-.5.678-1.1,1.427-1.8,2.23a12.593,12.593,0,0,1-2.55,2.184,12.219,12.219,0,0,1-3.509,1.56,11.877,11.877,0,0,1-4.562.257,9.982,9.982,0,0,1-5.63-2.573,10.778,10.778,0,0,1-3.236-6.285,18.412,18.412,0,0,1-3.322,3.369,15.314,15.314,0,0,1-3.54,2.043,14.037,14.037,0,0,1-3.634.959,17.159,17.159,0,0,1-3.689.047,15.792,15.792,0,0,1-4.679-1.2,12.819,12.819,0,0,1-4.055-2.745,13.085,13.085,0,0,1-2.885-4.461,16.922,16.922,0,0,1-1.107-6.4,13.163,13.163,0,0,1,1.786-7.3,14.747,14.747,0,0,1,4.734-4.57,29.876,29.876,0,0,1,6.668-2.987q3.743-1.193,7.658-2.535a7.471,7.471,0,0,0,4.234-3.26,9.132,9.132,0,0,0,1.31-4.726,8.8,8.8,0,0,0-2.207-6.192,8.149,8.149,0,0,0-5.942-2.542Zm8.071,22.834a2.566,2.566,0,0,0-.78-2.012,3.322,3.322,0,0,0-2.059-.78,6.886,6.886,0,0,0-3.338.6,7.557,7.557,0,0,0-2.784,2.207,11.371,11.371,0,0,0-1.895,3.751,17.936,17.936,0,0,0-.678,5.3,23.162,23.162,0,0,0,.445,4.9,10.661,10.661,0,0,0,1.162,3.166,4.8,4.8,0,0,0,1.692,1.747,5,5,0,0,0,2.012.647,4.437,4.437,0,0,0,2.456-.46,6.433,6.433,0,0,0,2-1.56,7.907,7.907,0,0,0,1.349-2.293,7.135,7.135,0,0,0,.491-2.628Z" transform="translate(-95.774 -48.398)" fill="url(#linear-gradient-11)"/>
      <path id="Path_2760" data-name="Path 2760" d="M523.348,208.264a75.9,75.9,0,0,1,6.574-9.311c.975-1.193,2.035-2.34,3.166-3.5a32.19,32.19,0,0,1,3.54-3.073,17.991,17.991,0,0,1,3.79-2.191,9.764,9.764,0,0,1,3.9-.78,7.97,7.97,0,0,1,6.519,2.893c1.56,1.926,2.339,4.679,2.339,8.118a41.662,41.662,0,0,1-.445,6.184,49.793,49.793,0,0,1-1.747,7.159l-2.277-.109a9.483,9.483,0,0,0-2.277-4.921,7.019,7.019,0,0,0-5.209-2.1,12.189,12.189,0,0,0-4.96.889,28.909,28.909,0,0,0-4.765,2.433,42.47,42.47,0,0,0-4.383,3.182c-1.38,1.139-2.644,2.223-3.774,3.252q.047,29.15.109,58.3a14.142,14.142,0,0,1-.32,2.737,5.459,5.459,0,0,1-1.56,2.807,8.087,8.087,0,0,1-3.728,1.872c-1.645.421-6.558-.367-8.212-1.341a13.2,13.2,0,0,1-3.782-3.119,7.985,7.985,0,0,1-1.638-3.275,13.536,13.536,0,0,1-.328-2.566L503.7,204.63a8.641,8.641,0,0,0-1.115-4.422,4.04,4.04,0,0,0-3.712-1.926,4.983,4.983,0,0,0-2.339.476,12.289,12.289,0,0,0-2.113,1.427l-1.716-2.168a45.3,45.3,0,0,1,4.18-3.166,32.5,32.5,0,0,1,5-2.768,35.425,35.425,0,0,1,5.779-1.973,14.278,14.278,0,0,1,7.151.25,11.846,11.846,0,0,1,4.094,2.628,12.664,12.664,0,0,1,2.488,3.735,21.834,21.834,0,0,1,1.349,4.2,24.17,24.17,0,0,1,.538,4.055C523.348,206.244,523.348,207.367,523.348,208.264Z" transform="translate(-108.471 -41.692)" fill="url(#linear-gradient-12)"/>
      <path id="Path_2761" data-name="Path 2761" d="M111.724,68.381a1.5,1.5,0,0,1-.445-1.1V46.717a2.223,2.223,0,0,1,.655-1.606,2.137,2.137,0,0,1,1.56-.671h1.139a2.106,2.106,0,0,1,1.256.413,2.464,2.464,0,0,1,.842,1.037l7.8,19.5,7.8-19.5a2.464,2.464,0,0,1,.912-1.014,2.106,2.106,0,0,1,1.256-.413h1.139a2.137,2.137,0,0,1,1.56.671,2.222,2.222,0,0,1,.655,1.606V67.281a1.5,1.5,0,0,1-.444,1.1,1.591,1.591,0,0,1-2.223,0,1.458,1.458,0,0,1-.468-1.1V47.715L126.76,67.383a2.34,2.34,0,0,1-.881,1.053,2.41,2.41,0,0,1-2.651,0,2.339,2.339,0,0,1-.881-1.053l-7.931-19.667V67.281a1.458,1.458,0,0,1-.468,1.1,1.591,1.591,0,0,1-2.223,0Z" transform="translate(-24.496 -9.777)" fill="url(#linear-gradient-13)"/>
      <path id="Path_2762" data-name="Path 2762" d="M153.529,68.392a9.252,9.252,0,0,1-2.34-6.738,11.19,11.19,0,0,1,.9-4.515,7.658,7.658,0,0,1,2.753-3.338,8.843,8.843,0,0,1,8.991-.086,7.635,7.635,0,0,1,2.807,3.166,9.7,9.7,0,0,1,.967,4.328,1.513,1.513,0,0,1-.429,1.1,1.56,1.56,0,0,1-1.154.445h-11.7a5.662,5.662,0,0,0,1.794,3.759,6.176,6.176,0,0,0,4.281,1.341,10.216,10.216,0,0,0,2.534-.273,10.442,10.442,0,0,0,2.121-.78,1.427,1.427,0,0,1,.616-.133,1.4,1.4,0,0,1,.967.374,1.271,1.271,0,0,1,.413.967,1.474,1.474,0,0,1-.928,1.263,10.762,10.762,0,0,1-6.028,1.56A9.02,9.02,0,0,1,153.529,68.392Zm10.972-8.18a5.5,5.5,0,0,0-.873-2.831,4.812,4.812,0,0,0-1.911-1.669,5.287,5.287,0,0,0-4.617,0,4.625,4.625,0,0,0-1.9,1.669,5.646,5.646,0,0,0-.866,2.831Z" transform="translate(-33.283 -11.558)" fill="url(#linear-gradient-14)"/>
      <path id="Path_2763" data-name="Path 2763" d="M177.992,70.151a1.474,1.474,0,0,1-.452-1.1V54.234a1.56,1.56,0,0,1,.452-1.123,1.45,1.45,0,0,1,1.1-.46,1.5,1.5,0,0,1,1.115.46,1.56,1.56,0,0,1,.468,1.123v1.482q2.41-3.244,5.412-3.236h.172a1.443,1.443,0,0,1,1.084.445,1.513,1.513,0,0,1,.429,1.1,1.388,1.388,0,0,1-.445,1.068,1.6,1.6,0,0,1-1.139.413h-.172a5.888,5.888,0,0,0-3.034.78,6.972,6.972,0,0,0-2.34,2.223V69.051a1.458,1.458,0,0,1-.468,1.1,1.56,1.56,0,0,1-1.115.452,1.5,1.5,0,0,1-1.068-.452Z" transform="translate(-39.084 -11.547)" fill="url(#linear-gradient-15)"/>
      <path id="Path_2764" data-name="Path 2764" d="M194.874,70.151a1.5,1.5,0,0,1-.445-1.1V54.235a1.56,1.56,0,0,1,.445-1.123,1.474,1.474,0,0,1,1.107-.46,1.5,1.5,0,0,1,1.115.46,1.56,1.56,0,0,1,.468,1.123v1.482q2.41-3.244,5.4-3.236h.179a1.458,1.458,0,0,1,1.084.444,1.513,1.513,0,0,1,.429,1.1,1.388,1.388,0,0,1-.445,1.068,1.6,1.6,0,0,1-1.139.413h-.172a5.888,5.888,0,0,0-3.034.78,6.894,6.894,0,0,0-2.34,2.223V69.051a1.458,1.458,0,0,1-.468,1.1,1.553,1.553,0,0,1-2.191,0Z" transform="translate(-42.803 -11.547)" fill="url(#linear-gradient-16)"/>
      <path id="Path_2765" data-name="Path 2765" d="M213.742,78.133a1.474,1.474,0,0,1-.429-1.068,1.506,1.506,0,0,1,.1-.546l2.238-5.755-6.48-15.776a1.918,1.918,0,0,1-.133-.655,1.56,1.56,0,0,1,.445-1.123,1.451,1.451,0,0,1,1.1-.46,1.474,1.474,0,0,1,.881.273,1.6,1.6,0,0,1,.569.686l5.3,13.164,5.412-13.093a1.5,1.5,0,0,1,1.443-1.029,1.474,1.474,0,0,1,1.107.46,1.56,1.56,0,0,1,.445,1.123,1.646,1.646,0,0,1-.1.585l-9.4,22.615a1.56,1.56,0,0,1-1.451,1.068,1.365,1.365,0,0,1-1.045-.468Z" transform="translate(-46.019 -11.606)" fill="url(#linear-gradient-17)"/>
      <path id="Path_2766" data-name="Path 2766" d="M251.4,67.443a10.871,10.871,0,0,1-4.312-4.312,13.257,13.257,0,0,1-1.56-6.558,13.257,13.257,0,0,1,1.56-6.566,10.8,10.8,0,0,1,4.312-4.3,12.665,12.665,0,0,1,6.192-1.482,14.583,14.583,0,0,1,4.18.554,17.835,17.835,0,0,1,3.673,1.56,1.38,1.38,0,0,1,.78,1.31,1.271,1.271,0,0,1-.382.912,1.31,1.31,0,0,1-1,.4,1.326,1.326,0,0,1-.616-.14,16.026,16.026,0,0,0-2.963-1.209,12.345,12.345,0,0,0-3.346-.413,9.849,9.849,0,0,0-5.046,1.224,7.861,7.861,0,0,0-3.119,3.345,11.487,11.487,0,0,0,0,9.608,7.9,7.9,0,0,0,3.119,3.345,9.849,9.849,0,0,0,5.046,1.217,12.049,12.049,0,0,0,3.346-.413,15.449,15.449,0,0,0,2.963-1.2,1.466,1.466,0,0,1,1.614.242,1.24,1.24,0,0,1,.382.928,1.38,1.38,0,0,1-.78,1.31,17.835,17.835,0,0,1-3.673,1.56,14.583,14.583,0,0,1-4.18.554A12.664,12.664,0,0,1,251.4,67.443Z" transform="translate(-54.052 -9.728)" fill="url(#linear-gradient-18)"/>
      <path id="Path_2767" data-name="Path 2767" d="M277.734,68.07a1.5,1.5,0,0,1-.444-1.1V44.613a1.56,1.56,0,0,1,.444-1.123,1.474,1.474,0,0,1,1.1-.46,1.584,1.584,0,0,1,1.591,1.583V53.6a11.409,11.409,0,0,1,2.823-2.34,7.089,7.089,0,0,1,3.579-.858,5.989,5.989,0,0,1,3.291.889,5.825,5.825,0,0,1,2.137,2.449A7.8,7.8,0,0,1,293,57.153v9.818a1.458,1.458,0,0,1-.468,1.1,1.591,1.591,0,0,1-2.223,0,1.5,1.5,0,0,1-.444-1.1V57.527q0-4.2-3.79-4.2a5.5,5.5,0,0,0-3.08.889,11.074,11.074,0,0,0-2.566,2.417V66.971a1.458,1.458,0,0,1-.468,1.1,1.56,1.56,0,0,1-1.123.452,1.5,1.5,0,0,1-1.1-.452Z" transform="translate(-61.046 -9.466)" fill="url(#linear-gradient-19)"/>
      <path id="Path_2768" data-name="Path 2768" d="M304.634,70.151a1.5,1.5,0,0,1-.444-1.1V54.235a1.56,1.56,0,0,1,.445-1.123,1.474,1.474,0,0,1,1.107-.46,1.505,1.505,0,0,1,1.115.46,1.56,1.56,0,0,1,.468,1.123v1.482q2.41-3.244,5.4-3.236h.179a1.458,1.458,0,0,1,1.084.444,1.56,1.56,0,0,1,.429,1.1,1.365,1.365,0,0,1-.452,1.068,1.56,1.56,0,0,1-1.131.413h-.172a5.888,5.888,0,0,0-3.034.78,6.894,6.894,0,0,0-2.339,2.223V69.051a1.458,1.458,0,0,1-.468,1.1,1.553,1.553,0,0,1-2.191,0Z" transform="translate(-66.968 -11.547)" fill="url(#linear-gradient-20)"/>
      <path id="Path_2769" data-name="Path 2769" d="M321.272,46.825a1.669,1.669,0,0,1-.523-1.24v-.14a1.669,1.669,0,0,1,.522-1.24,1.692,1.692,0,0,1,1.24-.515h.2a1.77,1.77,0,0,1,1.762,1.755v.14a1.77,1.77,0,0,1-1.762,1.755H322.5a1.692,1.692,0,0,1-1.232-.515Zm.2,21.391a1.5,1.5,0,0,1-.444-1.1V52.3a1.56,1.56,0,0,1,.444-1.123,1.466,1.466,0,0,1,1.107-.46,1.56,1.56,0,0,1,1.56,1.56V67.093a1.458,1.458,0,0,1-.468,1.1,1.593,1.593,0,0,1-2.2.023Z" transform="translate(-70.614 -9.612)" fill="url(#linear-gradient-21)"/>
      <path id="Path_2770" data-name="Path 2770" d="M331.192,69.295a1.3,1.3,0,0,1-.593-1.139,1.38,1.38,0,0,1,.382-.959,1.24,1.24,0,0,1,.967-.421,1.474,1.474,0,0,1,.616.14,13.684,13.684,0,0,0,2.207.78,10.044,10.044,0,0,0,2.48.281q3.821,0,3.821-2.449a1.31,1.31,0,0,0-.873-1.209,18.11,18.11,0,0,0-2.878-.928,25.735,25.735,0,0,1-3.361-1,5.888,5.888,0,0,1-2.269-1.56,3.985,3.985,0,0,1-.951-2.776,4.944,4.944,0,0,1,1.739-3.9,7.338,7.338,0,0,1,4.975-1.513,14.3,14.3,0,0,1,5,.858,1.318,1.318,0,0,1,.741.515,1.4,1.4,0,0,1,.257.78,1.365,1.365,0,0,1-.4.967,1.3,1.3,0,0,1-.983.406,1.864,1.864,0,0,1-.444-.062,13.257,13.257,0,0,0-3.9-.624,5.4,5.4,0,0,0-2.909.671,2.012,2.012,0,0,0-1.053,1.739,1.6,1.6,0,0,0,.967,1.521,13.928,13.928,0,0,0,2.995.928,29.712,29.712,0,0,1,3.314,1.014,5.552,5.552,0,0,1,2.184,1.56,4.273,4.273,0,0,1,.912,2.862,4.539,4.539,0,0,1-1.739,3.65,7.471,7.471,0,0,1-4.913,1.45A12.828,12.828,0,0,1,331.192,69.295Z" transform="translate(-72.782 -11.58)" fill="url(#linear-gradient-22)"/>
      <path id="Path_2771" data-name="Path 2771" d="M353.584,65.363V54.68h-2.449a.632.632,0,0,1-.46-.187.616.616,0,0,1-.195-.468.78.78,0,0,1,.312-.585l4.679-4.578a.842.842,0,0,1,.585-.312.632.632,0,0,1,.468.2.71.71,0,0,1,.187.483V52.02h3.9a1.279,1.279,0,0,1,1.341,1.341,1.31,1.31,0,0,1-.374.944,1.287,1.287,0,0,1-.967.4h-3.9v10.38c0,.9.211,1.466.639,1.708a3.19,3.19,0,0,0,1.6.359,4.679,4.679,0,0,0,1.38-.2l.289-.07a1.91,1.91,0,0,1,.4,0,1.232,1.232,0,0,1,.866.359,1.17,1.17,0,0,1,.374.881,1.3,1.3,0,0,1-.78,1.2,6.777,6.777,0,0,1-2.862.624Q353.584,69.91,353.584,65.363Z" transform="translate(-77.159 -10.682)" fill="url(#linear-gradient-23)"/>
      <path id="Path_2772" data-name="Path 2772" d="M370.454,70.143a1.5,1.5,0,0,1-.444-1.1V54.226a1.56,1.56,0,0,1,.445-1.123,1.466,1.466,0,0,1,1.107-.46,1.56,1.56,0,0,1,1.56,1.56v1.412a8.578,8.578,0,0,1,2.34-2.277,6.34,6.34,0,0,1,3.533-.889,5.373,5.373,0,0,1,3.307,1.029,5.818,5.818,0,0,1,1.965,2.511,6.925,6.925,0,0,1,6.332-3.54,5.287,5.287,0,0,1,3.229.959,5.825,5.825,0,0,1,1.911,2.542,8.3,8.3,0,0,1,.624,3.166v9.927a1.474,1.474,0,0,1-.46,1.1,1.56,1.56,0,0,1-1.123.452,1.5,1.5,0,0,1-1.1-.452,1.474,1.474,0,0,1-.452-1.1v-9.3a5.545,5.545,0,0,0-.78-3.291,3.205,3.205,0,0,0-2.722-1.045,4.554,4.554,0,0,0-2.917.912,8.938,8.938,0,0,0-2.051,2.394V69.043a1.45,1.45,0,0,1-.46,1.1,1.577,1.577,0,0,1-2.683-1.107v-9.3a5.459,5.459,0,0,0-.78-3.291,3.2,3.2,0,0,0-2.722-1.045,4.539,4.539,0,0,0-2.909.912,8.664,8.664,0,0,0-2.082,2.394V69.043a1.458,1.458,0,0,1-.468,1.1,1.562,1.562,0,0,1-2.2,0Z" transform="translate(-81.459 -11.538)" fill="url(#linear-gradient-24)"/>
      <path id="Path_2773" data-name="Path 2773" d="M411.9,70.161a4.835,4.835,0,0,1-2.043-1.809,4.952,4.952,0,0,1-.78-2.737,4.812,4.812,0,0,1,2.02-4.063,9.7,9.7,0,0,1,5.9-1.513h4.172v-.281a4.2,4.2,0,0,0-1.123-3.275,5.147,5.147,0,0,0-3.494-1,11.526,11.526,0,0,0-2.34.211,21,21,0,0,0-2.262.616,1.832,1.832,0,0,1-.445.07,1.248,1.248,0,0,1-.9-.374,1.279,1.279,0,0,1-.374-.936,1.334,1.334,0,0,1,.889-1.31,15.168,15.168,0,0,1,5.966-1.232,7.8,7.8,0,0,1,4.008.959,6.13,6.13,0,0,1,2.417,2.5,7.314,7.314,0,0,1,.78,3.33v9.748a1.458,1.458,0,0,1-.468,1.1,1.591,1.591,0,0,1-2.223,0,1.5,1.5,0,0,1-.445-1.1v-.9a8.656,8.656,0,0,1-6.48,2.62,6.433,6.433,0,0,1-2.784-.624Zm6.909-2.878a8.157,8.157,0,0,0,2.378-1.84V62.55h-3.759c-3.462,0-5.2.9-5.2,2.722a2.534,2.534,0,0,0,.85,2,4.157,4.157,0,0,0,2.807.78A6.168,6.168,0,0,0,418.812,67.283Z" transform="translate(-90.061 -11.557)" fill="url(#linear-gradient-25)"/>
      <path id="Path_2774" data-name="Path 2774" d="M434.475,69.3a1.318,1.318,0,0,1-.585-1.139,1.372,1.372,0,0,1,.374-.959,1.255,1.255,0,0,1,.967-.421,1.474,1.474,0,0,1,.616.14,13.952,13.952,0,0,0,2.207.78,10.044,10.044,0,0,0,2.48.281q3.821,0,3.829-2.449a1.318,1.318,0,0,0-.881-1.209A18.107,18.107,0,0,0,440.6,63.4a26.125,26.125,0,0,1-3.361-1,5.888,5.888,0,0,1-2.269-1.56,3.985,3.985,0,0,1-.951-2.776,4.968,4.968,0,0,1,1.739-3.9,7.35,7.35,0,0,1,4.983-1.513,14.287,14.287,0,0,1,4.991.858,1.318,1.318,0,0,1,.741.515,1.4,1.4,0,0,1,.257.78,1.365,1.365,0,0,1-.4.967,1.287,1.287,0,0,1-.975.406,1.871,1.871,0,0,1-.468-.133,13.187,13.187,0,0,0-3.9-.624,5.459,5.459,0,0,0-2.917.671,2,2,0,0,0-1.045,1.739,1.56,1.56,0,0,0,.959,1.521,13.874,13.874,0,0,0,3,.92,30.037,30.037,0,0,1,3.306,1.014,5.459,5.459,0,0,1,2.184,1.56A4.274,4.274,0,0,1,447.4,65.7a4.539,4.539,0,0,1-1.723,3.657,7.447,7.447,0,0,1-4.905,1.45A12.836,12.836,0,0,1,434.475,69.3Z" transform="translate(-95.523 -11.584)" fill="url(#linear-gradient-26)"/>
    </g>
  </g>
</svg>
