<svg xmlns="http://www.w3.org/2000/svg" xmlns:xlink="http://www.w3.org/1999/xlink" width="310.899" height="252.632" viewBox="0 0 310.899 252.632">
  <defs>
    <linearGradient id="linear-gradient" x1="0.5" y1="-0.44" x2="0.5" y2="2.832" gradientUnits="objectBoundingBox">
      <stop offset="0" stop-color="#dc1d28"/>
      <stop offset="1" stop-color="#ba2529"/>
    </linearGradient>
    <linearGradient id="linear-gradient-2" x1="0.5" y1="-1.777" x2="0.5" y2="5.702" xlink:href="#linear-gradient"/>
    <linearGradient id="linear-gradient-3" x1="0.5" y1="-1.225" x2="0.5" y2="3.948" xlink:href="#linear-gradient"/>
    <linearGradient id="linear-gradient-4" x1="0.501" y1="-1.214" x2="0.501" y2="3.889" xlink:href="#linear-gradient"/>
    <linearGradient id="linear-gradient-5" x1="0.5" y1="-0.816" x2="0.5" y2="3.31" xlink:href="#linear-gradient"/>
    <linearGradient id="linear-gradient-6" x1="0.5" y1="-0.989" x2="0.5" y2="1.565" xlink:href="#linear-gradient"/>
    <linearGradient id="linear-gradient-7" x1="0.5" y1="-2.169" x2="0.5" y2="2.219" xlink:href="#linear-gradient"/>
    <linearGradient id="linear-gradient-8" x1="0.5" y1="-2.214" x2="0.5" y2="2.317" xlink:href="#linear-gradient"/>
    <linearGradient id="linear-gradient-9" x1="0.5" y1="-1.416" x2="0.5" y2="1.596" xlink:href="#linear-gradient"/>
    <linearGradient id="linear-gradient-10" x1="0.5" y1="-2.207" x2="0.5" y2="2.267" xlink:href="#linear-gradient"/>
    <linearGradient id="linear-gradient-11" x1="0.501" y1="-2.052" x2="0.501" y2="2.064" xlink:href="#linear-gradient"/>
    <linearGradient id="linear-gradient-12" x1="0.501" y1="-0.972" x2="0.501" y2="1.491" xlink:href="#linear-gradient"/>
    <linearGradient id="linear-gradient-13" x1="0.5" y1="-3.177" x2="0.5" y2="2.317" gradientUnits="objectBoundingBox">
      <stop offset="0" stop-color="#00cce4"/>
      <stop offset="0.48" stop-color="#00a4e4"/>
      <stop offset="0.56" stop-color="#01a0e0"/>
      <stop offset="0.65" stop-color="#0396d3"/>
      <stop offset="0.74" stop-color="#0783be"/>
      <stop offset="0.83" stop-color="#0c6aa1"/>
      <stop offset="0.92" stop-color="#124a7c"/>
      <stop offset="1" stop-color="#192956"/>
    </linearGradient>
    <linearGradient id="linear-gradient-14" x1="0.499" y1="-4.577" x2="0.499" y2="2.742" xlink:href="#linear-gradient-13"/>
    <linearGradient id="linear-gradient-15" x1="0.5" y1="-4.622" x2="0.5" y2="2.772" xlink:href="#linear-gradient-13"/>
    <linearGradient id="linear-gradient-16" x1="0.502" y1="-4.622" x2="0.502" y2="2.772" xlink:href="#linear-gradient-13"/>
    <linearGradient id="linear-gradient-17" x1="0.5" y1="-3.249" x2="0.5" y2="1.935" xlink:href="#linear-gradient-13"/>
    <linearGradient id="linear-gradient-18" x1="0.499" y1="-3.132" x2="0.499" y2="2.296" xlink:href="#linear-gradient-13"/>
    <linearGradient id="linear-gradient-19" x1="0.5" y1="-2.997" x2="0.5" y2="2.26" xlink:href="#linear-gradient-13"/>
    <linearGradient id="linear-gradient-20" x1="0.5" y1="-4.622" x2="0.5" y2="2.772" xlink:href="#linear-gradient-13"/>
    <linearGradient id="linear-gradient-21" x1="0.5" y1="-3.082" x2="0.5" y2="2.288" xlink:href="#linear-gradient-13"/>
    <linearGradient id="linear-gradient-22" x1="0.499" y1="-4.593" x2="0.499" y2="2.745" xlink:href="#linear-gradient-13"/>
    <linearGradient id="linear-gradient-23" x1="0.501" y1="-3.773" x2="0.501" y2="2.492" xlink:href="#linear-gradient-13"/>
    <linearGradient id="linear-gradient-24" x1="0.5" y1="-4.613" x2="0.5" y2="2.769" xlink:href="#linear-gradient-13"/>
    <linearGradient id="linear-gradient-25" x1="0.502" y1="-4.589" x2="0.502" y2="2.749" xlink:href="#linear-gradient-13"/>
    <linearGradient id="linear-gradient-26" x1="0.499" y1="-4.616" x2="0.499" y2="2.757" xlink:href="#linear-gradient-13"/>
  </defs>
  <g id="Group_1281" data-name="Group 1281" transform="translate(-32 -87.368)">
    <text id="สวัสดีปีใหม่_ปี_2564_คร้าบ_ในปีใหม่นี้_น้องวายุขอให้พี่ๆทุกคน_โชคดี_แฮปปี้_ตลอดปีและตลอดไปเลยนะครับ" data-name="สวัสดีปีใหม่ ปี 2564 คร้าบ
ในปีใหม่นี้ น้องวายุขอให้พี่ๆทุกคน โชคดี 
แฮปปี้ ตลอดปีและตลอดไปเลยนะครับ" transform="translate(55 272)" fill="#00a4e4" font-size="15" font-family="KrungthaiFast-Regular, Krungthai Fast"><tspan x="59.057" y="15">สวัสดีปีใหม่ ปี 2564 คร้าบ</tspan><tspan x="19.195" y="35">ในปีใหม่นี้ น้องวายุขอให้พี่ๆทุกคน โชคดี </tspan><tspan x="26.65" y="55">แฮปปี้ ตลอดปีและตลอดไปเลยนะครับ</tspan></text>
    <g id="Header" transform="translate(32.005 87.378)">
      <g id="Layer_3" data-name="Layer 3" transform="translate(-0.005 -0.009)">
        <g id="Group_1170" data-name="Group 1170" transform="translate(112.951)" opacity="0.28">
          <path id="Path_2748" data-name="Path 2748" d="M257.656,39.795a38.6,38.6,0,0,0-11.449,1.358,21.568,21.568,0,0,0-8.859,4.907,22.614,22.614,0,0,0-5.686,8.794,37.337,37.337,0,0,0-2.017,12.992,58.1,58.1,0,0,0,.333,6.079,35.344,35.344,0,0,0,1.156,6,30.324,30.324,0,0,0,2.148,5.452,16.439,16.439,0,0,0,3.309,4.465,15.419,15.419,0,0,0,4.629,3.009,15.641,15.641,0,0,0,6.144,1.123,12.725,12.725,0,0,0,7.24-2.05,17,17,0,0,0,5.059-5.256,25.385,25.385,0,0,0,2.977-7.142,31.257,31.257,0,0,0,.987-7.633,17.878,17.878,0,0,0-.692-5.152,12.332,12.332,0,0,0-1.984-4,8.893,8.893,0,0,0-3.14-2.611,9.045,9.045,0,0,0-4.1-.927,9.443,9.443,0,0,0-4.329.96q-1.881.954-1.881,2.415a1.347,1.347,0,0,0,1.014,1.319c.681.245,1.428.545,2.246.927a7.535,7.535,0,0,1,2.246,1.636,4.613,4.613,0,0,1,1.025,3.3,5.217,5.217,0,0,1-1.75,4.165,6.657,6.657,0,0,1-4.531,1.521,5.823,5.823,0,0,1-3.009-.758,7.213,7.213,0,0,1-2.181-1.985,8.946,8.946,0,0,1-1.352-2.775,10.871,10.871,0,0,1-.463-3.14,10.393,10.393,0,0,1,1.984-6.58,14.093,14.093,0,0,1,5.185-4.067,29.784,29.784,0,0,1,7.344-2.279q4.127-.758,8.429-1.358t8.418-1.259a32.929,32.929,0,0,0,7.338-1.985,14.175,14.175,0,0,0,5.19-3.506,8.344,8.344,0,0,0,1.985-5.817,4.96,4.96,0,0,0-.763-3.037,4.236,4.236,0,0,0-1.685-1.39,5.01,5.01,0,0,0-2.448-.333,5.566,5.566,0,0,0-1.717.234,10.194,10.194,0,0,0-1.358.545,13.275,13.275,0,0,1-1.287.545,4.432,4.432,0,0,1-1.456.229,4.22,4.22,0,0,1-2.944-1.287,5.5,5.5,0,0,1-1.352-4.133,9.388,9.388,0,0,1,.992-4.5,9.5,9.5,0,0,1,2.508-3.042,10.359,10.359,0,0,1,3.342-1.75,11.875,11.875,0,0,1,3.538-.545,14.208,14.208,0,0,1,5.915,1.156,13.374,13.374,0,0,1,4.3,2.988,12.44,12.44,0,0,1,2.612,4.231,13.5,13.5,0,0,1,.861,4.661,24.532,24.532,0,0,1-1.259,8.232,17.571,17.571,0,0,1-3.631,6.117,19.531,19.531,0,0,1-5.855,4.263,36.282,36.282,0,0,1-7.9,2.677,15.962,15.962,0,0,1,3.173,5.8,26.983,26.983,0,0,1,1.123,8.3,26.408,26.408,0,0,1-2.377,10.74A28.268,28.268,0,0,1,271.8,90.3a37.28,37.28,0,0,1-11.842,6.918,46.711,46.711,0,0,1-16.5,2.677,47.431,47.431,0,0,1-14.611-2.148A32.662,32.662,0,0,1,217.4,91.463a28.982,28.982,0,0,1-7.5-10.081,32.313,32.313,0,0,1-2.726-13.554,30.606,30.606,0,0,1,1.456-9.721,28.9,28.9,0,0,1,3.871-7.736,30.357,30.357,0,0,1,5.479-5.883,40.057,40.057,0,0,1,6.248-4.231,35.436,35.436,0,0,1,6.215-2.677,34.3,34.3,0,0,1,5.419-1.292c-.616-.174-1.417-.447-2.41-.823a22.978,22.978,0,0,1-3.173-1.521,27.671,27.671,0,0,1-3.435-2.328,16.41,16.41,0,0,1-3.075-3.211,16.661,16.661,0,0,1-2.213-4.263,16.18,16.18,0,0,1-.861-5.452,15.942,15.942,0,0,1,1.919-7.791A17.724,17.724,0,0,1,227.9,5.017a25.536,25.536,0,0,1,7.9-3.707A35.378,35.378,0,0,1,245.492,0a47.693,47.693,0,0,1,10.244.96A23.988,23.988,0,0,1,262.824,3.6a11.819,11.819,0,0,1,4.165,3.931,9.066,9.066,0,0,1,1.358,4.765,8.848,8.848,0,0,1-.365,2.442,7.219,7.219,0,0,1-1.156,2.317,6.543,6.543,0,0,1-2.017,1.75,5.741,5.741,0,0,1-2.879.692,3.462,3.462,0,0,1-2.808-1.058,6.493,6.493,0,0,1-1.27-2.633,30.8,30.8,0,0,1-.616-3.413,15.2,15.2,0,0,0-.823-3.407,6,6,0,0,0-1.952-2.644,6.429,6.429,0,0,0-4-1.058,7.415,7.415,0,0,0-3.9,1.123A10.871,10.871,0,0,0,243.29,9.58a16.694,16.694,0,0,0-2.252,4.907,22.178,22.178,0,0,0-.834,6.226,15.228,15.228,0,0,0,1.123,5.85,13.99,13.99,0,0,0,3.337,4.858,18.182,18.182,0,0,0,5.485,3.467,24.741,24.741,0,0,0,7.535,1.783Z" transform="translate(-207.171 0.009)" fill="#58c7ed"/>
        </g>
        <path id="Path_2749" data-name="Path 2749" d="M155.944,136.938l4.225-.251V124.42a1.99,1.99,0,0,0-.12-.752,1.03,1.03,0,0,0-.322-.436,1.09,1.09,0,0,0-.5-.2,3.342,3.342,0,0,0-.638-.038,6.3,6.3,0,0,0-1.265.18,11.053,11.053,0,0,0-1.592.5,13.088,13.088,0,0,0-1.685.8,8.265,8.265,0,0,0-1.516,1.09,5.45,5.45,0,0,0-1.09,1.314,3.026,3.026,0,0,0-.414,1.537,2.459,2.459,0,0,0,.2,1.09,1.581,1.581,0,0,0,.452.611,1.145,1.145,0,0,0,.518.24,2.12,2.12,0,0,0,.387.038,2.18,2.18,0,0,0,.949-.229,6,6,0,0,0,.676-.425l.545-.42a1.118,1.118,0,0,1,.616-.213,1.7,1.7,0,0,1,.594.1,1.636,1.636,0,0,1,.578.354,1.963,1.963,0,0,1,.453.665,2.5,2.5,0,0,1,.185,1.025,3.07,3.07,0,0,1-.36,1.516,3.659,3.659,0,0,1-.932,1.09,4.258,4.258,0,0,1-1.3.7,5.391,5.391,0,0,1-1.45.289,5.119,5.119,0,0,1-2.006-.245,4.028,4.028,0,0,1-1.521-.916,3.958,3.958,0,0,1-.954-1.456,5.174,5.174,0,0,1-.322-1.832,6.886,6.886,0,0,1,.578-2.835,8.177,8.177,0,0,1,1.592-2.355,11.025,11.025,0,0,1,2.372-1.843,15.843,15.843,0,0,1,2.939-1.336,20.173,20.173,0,0,1,3.3-.818,23.6,23.6,0,0,1,3.44-.316,10.358,10.358,0,0,1,2.96.278,3.985,3.985,0,0,1,1.559.769,1.744,1.744,0,0,1,.627.987,5.005,5.005,0,0,1,.093.845v12.5q4.274-.224,8.554-.4V125.865A15.265,15.265,0,0,1,177.359,120a11.558,11.558,0,0,1,2.59-3.953,9.732,9.732,0,0,1,3.566-2.219,11.64,11.64,0,0,1,3.882-.687,17.785,17.785,0,0,1,2.524.169,10.13,10.13,0,0,1,2.094.545,4.362,4.362,0,0,1,1.428.861,1.636,1.636,0,0,1,.545,1.2,1.554,1.554,0,0,1-.1.578,1.826,1.826,0,0,1-.289.5,1.483,1.483,0,0,1-.431.354,1.009,1.009,0,0,1-.5.136,1.308,1.308,0,0,1-.747-.218,3.205,3.205,0,0,1-.611-.545,8.956,8.956,0,0,1-.545-.731,4.722,4.722,0,0,0-.7-.752,3.375,3.375,0,0,0-.785-.545,2.317,2.317,0,0,0-1.047-.224,3.478,3.478,0,0,0-2.257.692,4.313,4.313,0,0,0-1.287,2.017,13.4,13.4,0,0,0-.545,3.3c-.087,1.314-.136,2.824-.136,4.52v10.609c1.87-.071,2.808-.1,4.678-.158v1.8c-1.87.06-2.8.093-4.672.164v12.5a1.4,1.4,0,0,0,.289.938,1.019,1.019,0,0,0,.894.305,3.7,3.7,0,0,0,1.21-.273c.371-.158.7-.305.976-.442l.4.731c-.343.224-.747.463-1.2.714s-.96.491-1.51.725a14.053,14.053,0,0,1-1.772.6,9.585,9.585,0,0,1-1.963.327,7.115,7.115,0,0,1-2.562-.2,3.364,3.364,0,0,1-1.5-.872,2.846,2.846,0,0,1-.709-1.336,6.669,6.669,0,0,1-.169-1.548V137.744q-4.285.2-8.554.431V148.73a11.084,11.084,0,0,1-1.156,5.125,12.289,12.289,0,0,1-3.151,3.893,16.655,16.655,0,0,1-4.7,2.693,24.729,24.729,0,0,1-5.834,1.418,13.487,13.487,0,0,1-2.268.114,8.822,8.822,0,0,1-1.919-.262,3.631,3.631,0,0,1-1.33-.605,1.167,1.167,0,0,1-.5-.927,3.188,3.188,0,0,1,.115-.829,2.9,2.9,0,0,1,.349-.8,2.514,2.514,0,0,1,.545-.632,1.538,1.538,0,0,1,.752-.316.5.5,0,0,1,.453.191,4,4,0,0,1,.4.545c.136.229.294.469.474.731a2.88,2.88,0,0,0,.692.692,3.1,3.1,0,0,0,1.03.474,3.816,3.816,0,0,0,1.5.055,7.868,7.868,0,0,0,3.069-.992,6.7,6.7,0,0,0,2.121-1.957,8.439,8.439,0,0,0,1.243-2.759,13.525,13.525,0,0,0,.414-3.375V138.573l-4.225.273C155.944,138.093,155.944,137.706,155.944,136.938Z" transform="translate(-66.84 -51.452)" fill="url(#linear-gradient)"/>
        <path id="Path_2750" data-name="Path 2750" d="M235.893,145.054a6.544,6.544,0,0,0-1.467.191,5.515,5.515,0,0,0-1.161.425,2.852,2.852,0,0,0-.769.545.9.9,0,0,0-.284.545.442.442,0,0,0,.36.425c.245.082.512.174.807.284a2.692,2.692,0,0,1,.8.469,1.172,1.172,0,0,1,.36.949,1.636,1.636,0,0,1-.2.785,2.268,2.268,0,0,1-.545.638,2.649,2.649,0,0,1-.79.442,3.109,3.109,0,0,1-.943.18,2.83,2.83,0,0,1-2.1-.714,2.611,2.611,0,0,1-.8-2.028,3.272,3.272,0,0,1,.747-2.137,5.861,5.861,0,0,1,1.946-1.494,10.98,10.98,0,0,1,2.726-.889,17.281,17.281,0,0,1,3.026-.322,17.038,17.038,0,0,1,3.467.294,9.563,9.563,0,0,1,2.922,1.052,5.834,5.834,0,0,1,2.023,1.859,4.842,4.842,0,0,1,.758,2.726v11.3a3.661,3.661,0,0,0,0,.4,1.2,1.2,0,0,0,.114.4.812.812,0,0,0,.283.294.976.976,0,0,0,.545.109,1.292,1.292,0,0,0,.78-.283,5.5,5.5,0,0,0,.643-.545l.583.409c-.234.284-.513.594-.84.932a6.754,6.754,0,0,1-1.188.96,7.578,7.578,0,0,1-1.636.769,7.164,7.164,0,0,1-2.121.349,4.58,4.58,0,0,1-2.606-.687,3.407,3.407,0,0,1-1.488-2.279,9.921,9.921,0,0,1-1.554,1.494,9.3,9.3,0,0,1-1.636,1,8.54,8.54,0,0,1-1.69.589,9.63,9.63,0,0,1-1.712.223,7.746,7.746,0,0,1-2.181-.207,5.146,5.146,0,0,1-1.87-.883,4.421,4.421,0,0,1-1.325-1.636,5.866,5.866,0,0,1-.5-2.562,5.25,5.25,0,0,1,.845-3.064A7.327,7.327,0,0,1,230.4,154.3a16.293,16.293,0,0,1,3.1-1.461q1.734-.611,3.549-1.276a3.86,3.86,0,0,0,1.974-1.418,3.407,3.407,0,0,0,.616-1.892,2.972,2.972,0,0,0-1.009-2.366A3.986,3.986,0,0,0,235.893,145.054Zm3.691,8.723a.861.861,0,0,0-.371-.758,1.575,1.575,0,0,0-.954-.24,3.86,3.86,0,0,0-2.84,1.336,4.721,4.721,0,0,0-.889,1.57,6.4,6.4,0,0,0-.327,2.137,7.955,7.955,0,0,0,.191,1.935,3.463,3.463,0,0,0,.545,1.2,1.789,1.789,0,0,0,.78.611,2.427,2.427,0,0,0,.932.153,2.644,2.644,0,0,0,1.145-.311,3.555,3.555,0,0,0,.932-.72,3.5,3.5,0,0,0,.627-.965,2.515,2.515,0,0,0,.234-1.047V153.8Z" transform="translate(-103.408 -65.189)" fill="url(#linear-gradient-2)"/>
        <path id="Path_2751" data-name="Path 2751" d="M272.03,146.641a1.68,1.68,0,0,0-.311-1.009,1.227,1.227,0,0,0-1.063-.42,1.7,1.7,0,0,0-.676.12,3.953,3.953,0,0,0-.605.343l-.485-.5a11.986,11.986,0,0,1,1.2-.752,9.877,9.877,0,0,1,1.434-.66,11.533,11.533,0,0,1,1.636-.463,9.306,9.306,0,0,1,1.859-.185,5.147,5.147,0,0,1,1.794.278,4.906,4.906,0,0,1,1.248.665,3.057,3.057,0,0,1,.752.818,2.137,2.137,0,0,1,.305.731,5.833,5.833,0,0,1,1.09-1.014,7.383,7.383,0,0,1,1.4-.785,7.909,7.909,0,0,1,1.636-.5,8.059,8.059,0,0,1,1.756-.174,8.325,8.325,0,0,1,3.375.681,6.967,6.967,0,0,1,2.6,1.985,9.1,9.1,0,0,1,1.668,3.238,15.32,15.32,0,0,1,.589,4.46,15.158,15.158,0,0,1-.709,4.961,9.515,9.515,0,0,1-1.859,3.315,6.81,6.81,0,0,1-2.633,1.848,8.178,8.178,0,0,1-3.02.545,10.784,10.784,0,0,1-2.246-.24,9.2,9.2,0,0,1-1.668-.545,7.089,7.089,0,0,1-1.167-.654c-.311-.218-.545-.4-.741-.545v9.732a2.64,2.64,0,0,1-.093.616,1.466,1.466,0,0,1-.458.687,3.02,3.02,0,0,1-1.09.545,6.51,6.51,0,0,1-1.946.245,6.194,6.194,0,0,1-1.946-.24,3.1,3.1,0,0,1-1.09-.589,1.5,1.5,0,0,1-.469-.692,2.365,2.365,0,0,1-.093-.545Q272.03,159.289,272.03,146.641Zm7.153,12.681a1.8,1.8,0,0,0,.164.545,3.157,3.157,0,0,0,.507.818,3.662,3.662,0,0,0,.9.752,2.573,2.573,0,0,0,1.341.333,2.453,2.453,0,0,0,1.745-.654,4.8,4.8,0,0,0,1.189-1.8,10.808,10.808,0,0,0,.676-2.666,23.645,23.645,0,0,0,.207-3.271,20.576,20.576,0,0,0-.267-3.615,7.9,7.9,0,0,0-.78-2.393,3.4,3.4,0,0,0-1.227-1.319,3.14,3.14,0,0,0-1.592-.42,2.274,2.274,0,0,0-1.025.251,3.816,3.816,0,0,0-.921.616,3.27,3.27,0,0,0-.665.823,1.816,1.816,0,0,0-.251.878Z" transform="translate(-122.29 -65.086)" fill="url(#linear-gradient-3)"/>
        <path id="Path_2752" data-name="Path 2752" d="M319.516,146.953a1.7,1.7,0,0,0-.316-1.025,1.248,1.248,0,0,0-1.058-.447,1.675,1.675,0,0,0-.676.115,3.746,3.746,0,0,0-.605.327l-.491-.507c.36-.245.758-.491,1.2-.736a10.017,10.017,0,0,1,1.428-.632,11.063,11.063,0,0,1,1.636-.436,9.008,9.008,0,0,1,1.865-.153,5.13,5.13,0,0,1,1.794.311,4.64,4.64,0,0,1,1.243.7,3.146,3.146,0,0,1,.758.84,2.24,2.24,0,0,1,.305.747,5.762,5.762,0,0,1,1.09-1.009,7.515,7.515,0,0,1,1.4-.774,7.879,7.879,0,0,1,1.608-.48,8.6,8.6,0,0,1,5.125.611,7.316,7.316,0,0,1,2.6,2.088,9.977,9.977,0,0,1,1.668,3.375,16.6,16.6,0,0,1,.589,4.612,15.887,15.887,0,0,1-.7,5.092,9.508,9.508,0,0,1-1.854,3.347,6.4,6.4,0,0,1-2.628,1.788,7.824,7.824,0,0,1-3.015.442,10.725,10.725,0,0,1-2.246-.338,9.181,9.181,0,0,1-1.663-.627,7.525,7.525,0,0,1-1.167-.714c-.311-.234-.545-.431-.747-.583v9.879a2.642,2.642,0,0,1-.093.622,1.363,1.363,0,0,1-.453.676,2.857,2.857,0,0,1-1.09.545,6.113,6.113,0,0,1-1.946.147,6.331,6.331,0,0,1-1.946-.338,3.358,3.358,0,0,1-1.09-.649,1.636,1.636,0,0,1-.463-.725,2.181,2.181,0,0,1-.093-.572Zm7.164,13.036a1.9,1.9,0,0,0,.164.578,3.6,3.6,0,0,0,.513.85,3.914,3.914,0,0,0,.9.8,2.59,2.59,0,0,0,1.341.393,2.344,2.344,0,0,0,1.745-.6,4.859,4.859,0,0,0,1.183-1.8,11.126,11.126,0,0,0,.671-2.726,24.518,24.518,0,0,0,.2-3.326,21.624,21.624,0,0,0-.273-3.707,8.182,8.182,0,0,0-.785-2.464,3.539,3.539,0,0,0-1.221-1.374,3.086,3.086,0,0,0-1.6-.458,2.181,2.181,0,0,0-1.02.229,3.815,3.815,0,0,0-.921.605,3.091,3.091,0,0,0-.66.829,1.826,1.826,0,0,0-.256.883Z" transform="translate(-143.885 -65.24)" fill="url(#linear-gradient-4)"/>
        <path id="Path_2753" data-name="Path 2753" d="M364.438,169.077a5.61,5.61,0,0,0,2.857-.463,8.625,8.625,0,0,0,2.508-1.772A15.528,15.528,0,0,0,372.038,164a34.491,34.491,0,0,0,2-3.669c-1.418-4.253-2.873-8.532-4.65-12.621a84.165,84.165,0,0,0-4.563-9.3,11.057,11.057,0,0,0-2.4-3.064,3.958,3.958,0,0,0-2.361-1.052,2.725,2.725,0,0,0-1.2.224,5.154,5.154,0,0,0-.9.545l-.545-.583a7.635,7.635,0,0,1,1.09-.78,9.684,9.684,0,0,1,1.5-.731,10.511,10.511,0,0,1,1.941-.545,11.256,11.256,0,0,1,2.377-.174,10.421,10.421,0,0,1,1.445.131,7.2,7.2,0,0,1,1.636.452,7.943,7.943,0,0,1,1.636.905,7.376,7.376,0,0,1,1.554,1.537,32.656,32.656,0,0,1,3.424,5.937c1.45,3.069,2.65,6.237,3.844,9.4.431-1.172.856-2.339,1.276-3.511s.84-2.312,1.27-3.424.867-2.181,1.308-3.217.9-2.006,1.363-2.911a23.746,23.746,0,0,1,1.494-2.541,9.057,9.057,0,0,1,1.674-1.848,6.446,6.446,0,0,1,2.044-1.118,7.529,7.529,0,0,1,2.6-.338,3.271,3.271,0,0,1,1.783.507,1.57,1.57,0,0,1,.687,1.379,2.77,2.77,0,0,1-.273,1.319.8.8,0,0,1-.752.491.763.763,0,0,1-.616-.316c-.147-.2-.294-.414-.442-.643a3.108,3.108,0,0,0-.545-.649,1.254,1.254,0,0,0-.867-.322,3.146,3.146,0,0,0-2.355,1.036,11.447,11.447,0,0,0-2.028,2.928,36.018,36.018,0,0,0-1.837,4.329q-.889,2.47-1.783,5.228c-.6,1.832-1.227,3.718-1.881,5.643s-1.325,3.762-2.072,5.55a44.89,44.89,0,0,1-2.47,5.027,19.5,19.5,0,0,1-3,4.007,11.492,11.492,0,0,1-3.658,2.53,9.034,9.034,0,0,1-4.46.632,13.89,13.89,0,0,1-2.061-.343,10.742,10.742,0,0,1-1.788-.594,5.409,5.409,0,0,1-1.3-.774,1.45,1.45,0,0,1-.578-.883,2.022,2.022,0,0,1,.027-.676,1.979,1.979,0,0,1,.24-.605,1.369,1.369,0,0,1,.453-.431,1.134,1.134,0,0,1,.66-.136.643.643,0,0,1,.431.24,5.994,5.994,0,0,1,.431.545c.153.218.327.453.513.7a4.361,4.361,0,0,0,.7.725,4.431,4.431,0,0,0,1,.594A4.361,4.361,0,0,0,364.438,169.077Z" transform="translate(-162.55 -59.891)" fill="url(#linear-gradient-5)"/>
        <path id="Path_2754" data-name="Path 2754" d="M19.532,209.585q0-3.544-.044-6.493c-.033-1.968-.06-3.686-.093-5.147s-.065-2.628-.1-3.478-.049-1.363-.049-1.521a2.726,2.726,0,0,0-1.6-.545H15.874a8.565,8.565,0,0,0-2.949.692,13.574,13.574,0,0,0-3.342,1.919,11.579,11.579,0,0,0-2.726,3.064,7.556,7.556,0,0,0-1.123,4.04,5.746,5.746,0,0,0,.294,2.039,3.01,3.01,0,0,0,.7,1.09,1.755,1.755,0,0,0,.807.442,2.757,2.757,0,0,0,.578.076,2.9,2.9,0,0,0,1.439-.409,9.029,9.029,0,0,0,1.02-.763l.856-.752a1.5,1.5,0,0,1,.932-.376,2.12,2.12,0,0,1,.894.185,2.388,2.388,0,0,1,.878.654,3.756,3.756,0,0,1,.681,1.2,5.452,5.452,0,0,1,.278,1.859,6.509,6.509,0,0,1-.545,2.726,6.646,6.646,0,0,1-1.407,2,6.3,6.3,0,0,1-1.963,1.27A7.137,7.137,0,0,1,9,213.9a6.542,6.542,0,0,1-3.037-.458,6.1,6.1,0,0,1-2.29-1.685,7.562,7.562,0,0,1-1.439-2.666,11.116,11.116,0,0,1-.491-3.347,17.054,17.054,0,0,1,1.527-7.436A15.549,15.549,0,0,1,7.347,193a16.9,16.9,0,0,1,5.872-3.146,23.4,23.4,0,0,1,6.869-1.036,25.168,25.168,0,0,1,5.267.442,11.732,11.732,0,0,1,3.375,1.2,6.2,6.2,0,0,1,2.028,1.783,13.629,13.629,0,0,1,1.259,2.154q2.077,4.531,4.138,9.061,1.946,4.269,3.871,8.543,1.783,3.947,3.626,7.889,1.766,3.756,3.435,7.055v-5.228q0-5.643.038-11.291c0-2.023.065-4,.18-5.943a38.709,38.709,0,0,1,.671-5.5,20.08,20.08,0,0,1,1.543-4.743,11.487,11.487,0,0,1,6.978-6.161,19.082,19.082,0,0,1,6.084-.861,19.289,19.289,0,0,1,3.271.267,11.133,11.133,0,0,1,2.617.752,4.967,4.967,0,0,1,1.734,1.2,2.317,2.317,0,0,1,.627,1.587,4.759,4.759,0,0,1-.158,1.172,3.816,3.816,0,0,1-.48,1.09,2.977,2.977,0,0,1-.8.834,1.919,1.919,0,0,1-1.09.343c-.354,0-.671-.234-.965-.725s-.654-1.03-1.09-1.636a7.022,7.022,0,0,0-1.712-1.636,5,5,0,0,0-2.9-.725,9.813,9.813,0,0,0-4.727,1.041,8.178,8.178,0,0,0-3.053,2.922,14.2,14.2,0,0,0-1.717,4.6,37.383,37.383,0,0,0-.709,6c-.06,1.516-.1,3-.136,4.443s-.071,2.895-.087,4.362,0,3-.033,4.585,0,3.271,0,5.092v6.886q0,3.042.087,4.989a53.141,53.141,0,0,0,3.108,4.694,24.231,24.231,0,0,0,3.026,3.418,10.986,10.986,0,0,0,2.993,2.023,6,6,0,0,0,3.053.491,3.368,3.368,0,0,0,.949-.24,6.184,6.184,0,0,0,.807-.4,5.857,5.857,0,0,0,.78-.545l1.09,1.259c-.327.267-.791.594-1.39.987a17.813,17.813,0,0,1-2.181,1.183,23.021,23.021,0,0,1-2.939,1.09,20.806,20.806,0,0,1-3.62.741,10.517,10.517,0,0,1-5.452-.769,17.447,17.447,0,0,1-5.021-3.337,32.663,32.663,0,0,1-4.612-5.4,76.175,76.175,0,0,1-4.242-6.913c-1.407-2.573-2.726-5.239-3.92-7.905-1.238-2.726-2.464-5.534-3.642-8.309q-1.717-4.04-3.386-8.1-1.636-3.947-3.162-7.289,0,2.23.027,4.618v16.743q0,3.195-.153,6.253a42.526,42.526,0,0,1-.676,5.834,26.746,26.746,0,0,1-1.537,5.207,14.987,14.987,0,0,1-2.726,4.362,14.975,14.975,0,0,1-4.231,3.238,19.654,19.654,0,0,1-6.052,1.892A16.776,16.776,0,0,1,4.9,249.8a8.723,8.723,0,0,1-2.6-.447,3.887,3.887,0,0,1-1.712-1.09A2.65,2.65,0,0,1,0,246.467a6.847,6.847,0,0,1,.158-1.4,5.5,5.5,0,0,1,.469-1.352,4.214,4.214,0,0,1,.769-1.09,1.892,1.892,0,0,1,1.09-.545.682.682,0,0,1,.643.311,7,7,0,0,1,.632.921c.218.371.474.769.769,1.2a5.5,5.5,0,0,0,1.047,1.15,4.133,4.133,0,0,0,1.483.78,4.77,4.77,0,0,0,2.094.082,10.386,10.386,0,0,0,4.705-1.826,10.408,10.408,0,0,0,3.031-3.6,17.822,17.822,0,0,0,1.69-5.152,48.958,48.958,0,0,0,.676-6.542c.071-1.636.125-3.228.147-4.76s.055-3.091.082-4.672.038-3.228.044-4.939S19.527,211.526,19.532,209.585Z" transform="translate(0.005 -85.145)" fill="url(#linear-gradient-6)"/>
        <path id="Path_2755" data-name="Path 2755" d="M126.5,238.947a9.464,9.464,0,0,0,.327,2.393,13.4,13.4,0,0,0,.954,2.557,12.34,12.34,0,0,0,1.559,2.4,10.513,10.513,0,0,0,2.137,1.974,9.381,9.381,0,0,0,2.682,1.287,9.04,9.04,0,0,0,3.238.322,9.383,9.383,0,0,0,2.284-.425,10.246,10.246,0,0,0,1.974-.878,14.627,14.627,0,0,0,1.761-1.21c.545-.452,1.134-.932,1.7-1.439l.878.763a26.358,26.358,0,0,1-2.083,2.421,19.186,19.186,0,0,1-3.069,2.562,20.3,20.3,0,0,1-4.2,2.143,19.822,19.822,0,0,1-5.452,1.167,16.357,16.357,0,0,1-5.959-.589,13.052,13.052,0,0,1-5.136-2.857,14.355,14.355,0,0,1-3.582-5.234,19.769,19.769,0,0,1-1.325-7.693,20.968,20.968,0,0,1,.829-5.964,20.17,20.17,0,0,1,2.214-4.95,18.858,18.858,0,0,1,3.271-3.9,20.422,20.422,0,0,1,3.893-2.808,19.546,19.546,0,0,1,4.171-1.723,16.742,16.742,0,0,1,4.1-.643,16.553,16.553,0,0,1,4.531.436,9.907,9.907,0,0,1,3.211,1.385,5.877,5.877,0,0,1,1.914,2.072,5.2,5.2,0,0,1,.622,2.508,4.83,4.83,0,0,1-.96,2.895,9.268,9.268,0,0,1-2.541,2.317Q133.415,234.537,126.5,238.947Zm7.088-7.393a5.255,5.255,0,0,0,.758-.545,2.049,2.049,0,0,0,.48-.638,3.455,3.455,0,0,0,.267-.9,8.875,8.875,0,0,0,.093-1.325,10.7,10.7,0,0,0-.185-1.9,7.4,7.4,0,0,0-.649-1.952,4.743,4.743,0,0,0-1.15-1.51,2.415,2.415,0,0,0-1.685-.545,3.369,3.369,0,0,0-2.181.818,6.058,6.058,0,0,0-1.488,1.974,12.692,12.692,0,0,0-.921,2.726c-.229,1.02-.4,2.039-.545,3.064a25.762,25.762,0,0,0-.218,2.95c-.027.938-.044,1.739-.044,2.388q3.74-2.35,7.5-4.607Z" transform="translate(-52.38 -99.422)" fill="url(#linear-gradient-7)"/>
        <path id="Path_2756" data-name="Path 2756" d="M218.73,227.278a16.309,16.309,0,0,0-.316-3.544,15.718,15.718,0,0,0-.681-2.328,15.359,15.359,0,0,0-.687-1.521,2.48,2.48,0,0,1-.316-1.123.992.992,0,0,1,.425-.818,4,4,0,0,1,1-.545,5.4,5.4,0,0,1,1.194-.333,6.109,6.109,0,0,1,1-.1,3.058,3.058,0,0,1,1.477.256,1.788,1.788,0,0,1,.741,1,10.221,10.221,0,0,1,.436,2.486c.082,1.03.12,2.126.12,3.3a52.222,52.222,0,0,1-.322,5.5,50.155,50.155,0,0,1-1.009,6.013,44,44,0,0,1-1.766,5.872,23.942,23.942,0,0,1-2.59,5.059,13.629,13.629,0,0,1-3.495,3.582,8.614,8.614,0,0,1-8.025.78,9.049,9.049,0,0,1-2.8-1.93,13.259,13.259,0,0,1-2.181-2.939,24.716,24.716,0,0,1-1.636-3.647,26.718,26.718,0,0,1-1.875,3.816,17.494,17.494,0,0,1-2.35,3.1,10.73,10.73,0,0,1-2.84,2.126,8.178,8.178,0,0,1-3.353.883,8.075,8.075,0,0,1-3.925-.725,9.236,9.236,0,0,1-3-2.344,15.158,15.158,0,0,1-2.241-3.582,32.37,32.37,0,0,1-1.636-4.362,46.7,46.7,0,0,1-1.129-4.781q-.452-2.459-.758-4.77t-.512-4.318c-.136-1.336-.256-2.519-.414-3.484a5.338,5.338,0,0,0-.714-2.066,1.685,1.685,0,0,0-1.592-.7,2.257,2.257,0,0,0-1.025.229,5.964,5.964,0,0,0-.916.594l-.736-.823a21.14,21.14,0,0,1,1.815-1.314,14.862,14.862,0,0,1,2.181-1.145,15.772,15.772,0,0,1,2.5-.823,12.693,12.693,0,0,1,2.813-.354,7.229,7.229,0,0,1,3.413.622,5.807,5.807,0,0,1,2.05,1.663,6.374,6.374,0,0,1,1.09,2.154,17.943,17.943,0,0,1,.447,2.083c.382,2.939.758,5.877,1.227,8.8a61.132,61.132,0,0,0,1.3,6.341,14.137,14.137,0,0,0,1.521,3.816,2.226,2.226,0,0,0,1.952,1.232,2.317,2.317,0,0,0,1.445-.643,6.945,6.945,0,0,0,1.341-1.7,16.317,16.317,0,0,0,1.2-2.59,27.258,27.258,0,0,0,1-3.337c-.234-1.2-.431-2.393-.594-3.571s-.305-2.317-.431-3.4-.245-2.1-.365-3.037-.24-1.777-.382-2.5q-.513-3.091.627-4.656c.769-1.041,2.3-1.576,4.6-1.6a11.449,11.449,0,0,1,2.552.218,3.544,3.544,0,0,1,1.717.9,4.716,4.716,0,0,1,1.09,1.821,14.9,14.9,0,0,1,.665,2.955c.393,2.917.812,5.839,1.287,8.723.42,2.562.861,4.727,1.33,6.477a15.908,15.908,0,0,0,1.527,4.007,2.271,2.271,0,0,0,1.952,1.347,2.971,2.971,0,0,0,2.219-1.4,12.735,12.735,0,0,0,1.766-3.642,29.768,29.768,0,0,0,1.15-5.19A44.7,44.7,0,0,0,218.73,227.278Z" transform="translate(-77.446 -98.667)" fill="url(#linear-gradient-8)"/>
        <path id="Path_2757" data-name="Path 2757" d="M331.294,217.437a62.253,62.253,0,0,1-1.325,12.708,57.618,57.618,0,0,1-3.724,11.389,45.037,45.037,0,0,1-5.67,9.574,48.884,48.884,0,0,1-7.158,7.289,30.662,30.662,0,0,1-8.178,4.623,24.734,24.734,0,0,1-8.723,1.57,11.4,11.4,0,0,1-5.223-1.09,3.149,3.149,0,0,1-1.843-2.819,3.725,3.725,0,0,1,.234-1.308,4.159,4.159,0,0,1,.611-1.129,3.053,3.053,0,0,1,.921-.791,2.361,2.361,0,0,1,1.15-.294,1.466,1.466,0,0,1,1.21.681c.322.453.66.943,1.019,1.477a7.713,7.713,0,0,0,1.3,1.483,3.14,3.14,0,0,0,2.11.7,12.932,12.932,0,0,0,3.609-.491,19.006,19.006,0,0,0,3.778-1.494,27.117,27.117,0,0,0,3.816-2.4,41.9,41.9,0,0,0,3.735-3.178c-.791-2.644-1.636-5.288-2.492-7.905-.943-2.873-1.935-5.752-2.96-8.6s-2.066-5.577-3.189-8.325c-1.09-2.666-2.148-5.038-3.184-7.088a31.034,31.034,0,0,0-2.993-4.956q-1.428-1.865-2.546-1.865a2.454,2.454,0,0,0-1.129.207,8.814,8.814,0,0,0-.938.6l-.763-.883c.507-.4,1.047-.812,1.6-1.238a11.192,11.192,0,0,1,1.935-1.167,13.085,13.085,0,0,1,2.677-.856,17.494,17.494,0,0,1,3.675-.322,9.814,9.814,0,0,1,4.362,1,9.268,9.268,0,0,1,3.658,3.631,47.629,47.629,0,0,1,2.475,4.716q1.281,2.759,2.6,6.166t2.639,7.382q1.39,4.154,2.677,8.347a59.073,59.073,0,0,0,3.816-9.753,43.736,43.736,0,0,0,1.412-10.713,15.9,15.9,0,0,0-.278-3.38,16.6,16.6,0,0,0-.616-2.393c-.229-.665-.436-1.227-.616-1.7a3.675,3.675,0,0,1-.273-1.243,1.123,1.123,0,0,1,.458-.905,3.392,3.392,0,0,1,1.09-.583,7.467,7.467,0,0,1,1.325-.289,8.285,8.285,0,0,1,1.123-.076,2.726,2.726,0,0,1,1.592.414,2.371,2.371,0,0,1,.823,1.145,6,6,0,0,1,.311,1.788C331.277,215.79,331.3,216.586,331.294,217.437Z" transform="translate(-131.641 -96.202)" fill="url(#linear-gradient-9)"/>
        <path id="Path_2758" data-name="Path 2758" d="M385.819,237.681a9.674,9.674,0,0,0,.344,2.361,14.681,14.681,0,0,0,2.551,5.13,13.123,13.123,0,0,0,2.154,2.214,11.448,11.448,0,0,0,2.7,1.636,9.855,9.855,0,0,0,3.238.763,8.668,8.668,0,0,0,2.284-.114,8.451,8.451,0,0,0,1.968-.611,11.7,11.7,0,0,0,1.756-1c.545-.382,1.118-.8,1.679-1.243l.883.894a20.98,20.98,0,0,1-2.066,2.181,14.893,14.893,0,0,1-3.048,2.181,16.23,16.23,0,0,1-4.182,1.537,19.289,19.289,0,0,1-11.422-1.09,16.432,16.432,0,0,1-8.81-8.914,18.8,18.8,0,0,1-1.379-7.382,17.991,17.991,0,0,1,.834-5.55,16.6,16.6,0,0,1,5.408-8,19.691,19.691,0,0,1,3.876-2.481,19.214,19.214,0,0,1,4.165-1.456,17.49,17.49,0,0,1,8.63.218,10.566,10.566,0,0,1,3.222,1.565,6.5,6.5,0,0,1,1.924,2.213,5.708,5.708,0,0,1,.643,2.6,4.662,4.662,0,0,1-.938,2.879,8.056,8.056,0,0,1-2.524,2.148Q392.748,234.055,385.819,237.681Zm7.049-6.575a4.858,4.858,0,0,0,.752-.5,1.733,1.733,0,0,0,.474-.594,3.225,3.225,0,0,0,.262-.878,8.727,8.727,0,0,0,.082-1.308,9.908,9.908,0,0,0-.2-1.9,7.715,7.715,0,0,0-.654-1.985,5.18,5.18,0,0,0-1.167-1.565,2.557,2.557,0,0,0-1.69-.66,3.238,3.238,0,0,0-2.181.671,5.381,5.381,0,0,0-1.472,1.837,11.017,11.017,0,0,0-.9,2.59,26.777,26.777,0,0,0-.5,2.933c-.115.987-.18,1.93-.2,2.84s-.027,1.679-.027,2.306Q389.172,233.014,392.868,231.106Z" transform="translate(-170.307 -99.278)" fill="url(#linear-gradient-10)"/>
        <path id="Path_2759" data-name="Path 2759" d="M447.793,222.7a8.244,8.244,0,0,0-2.213.2,7.438,7.438,0,0,0-1.75.638,3.93,3.93,0,0,0-1.156.894,1.466,1.466,0,0,0-.42.949.829.829,0,0,0,.545.78c.365.169.774.365,1.216.583a4.187,4.187,0,0,1,1.216.905,2.377,2.377,0,0,1,.545,1.706,3.031,3.031,0,0,1-.294,1.347,3.337,3.337,0,0,1-2,1.734,3.893,3.893,0,0,1-1.423.191,4.362,4.362,0,0,1-3.184-1.5,5.272,5.272,0,0,1-1.227-3.587,5.774,5.774,0,0,1,1.09-3.609,8.374,8.374,0,0,1,2.922-2.4,14.409,14.409,0,0,1,4.089-1.33,22.354,22.354,0,0,1,9.814.463,13.405,13.405,0,0,1,4.416,2.132,10.685,10.685,0,0,1,3.069,3.576,10.81,10.81,0,0,1,1.156,5.125q.033,10.359.071,20.756a5.917,5.917,0,0,0,.033.736,2.8,2.8,0,0,0,.18.758,1.531,1.531,0,0,0,.425.594,1.385,1.385,0,0,0,.807.311,1.538,1.538,0,0,0,1.172-.365,8.093,8.093,0,0,0,.96-.91l.883.878c-.349.474-.769,1-1.259,1.559a8.805,8.805,0,0,1-1.783,1.527,8.542,8.542,0,0,1-2.453,1.09,8.3,8.3,0,0,1-3.189.18,6.978,6.978,0,0,1-3.936-1.8,7.534,7.534,0,0,1-2.263-4.394,12.869,12.869,0,0,1-2.323,2.355,10.705,10.705,0,0,1-2.475,1.428,9.815,9.815,0,0,1-2.541.671,12,12,0,0,1-2.579.033,11.041,11.041,0,0,1-3.271-.84,8.962,8.962,0,0,1-2.835-1.919,9.147,9.147,0,0,1-2.017-3.118,11.83,11.83,0,0,1-.774-4.476,9.2,9.2,0,0,1,1.248-5.1,10.309,10.309,0,0,1,3.309-3.195,20.888,20.888,0,0,1,4.661-2.088q2.617-.834,5.354-1.772a5.223,5.223,0,0,0,2.96-2.279,6.385,6.385,0,0,0,.916-3.3,6.15,6.15,0,0,0-1.543-4.329A5.7,5.7,0,0,0,447.793,222.7Zm5.643,15.963a1.793,1.793,0,0,0-.545-1.407,2.323,2.323,0,0,0-1.439-.545,4.814,4.814,0,0,0-2.333.42,5.281,5.281,0,0,0-1.946,1.543,7.948,7.948,0,0,0-1.325,2.622,12.538,12.538,0,0,0-.474,3.7,16.193,16.193,0,0,0,.311,3.424,7.455,7.455,0,0,0,.812,2.213,3.359,3.359,0,0,0,1.183,1.221,3.5,3.5,0,0,0,1.407.453,3.1,3.1,0,0,0,1.717-.322,4.5,4.5,0,0,0,1.4-1.09,5.531,5.531,0,0,0,.943-1.6,4.989,4.989,0,0,0,.343-1.837Z" transform="translate(-197.852 -99.988)" fill="url(#linear-gradient-11)"/>
        <path id="Path_2760" data-name="Path 2760" d="M514.126,202.588a53.055,53.055,0,0,1,4.6-6.51c.682-.834,1.423-1.636,2.214-2.448a22.514,22.514,0,0,1,2.475-2.148,12.58,12.58,0,0,1,2.65-1.532,6.826,6.826,0,0,1,2.726-.545,5.572,5.572,0,0,1,4.558,2.023,8.859,8.859,0,0,1,1.635,5.675,29.1,29.1,0,0,1-.311,4.323,34.8,34.8,0,0,1-1.221,5l-1.592-.076a6.629,6.629,0,0,0-1.592-3.44,4.906,4.906,0,0,0-3.642-1.467,8.521,8.521,0,0,0-3.467.622,20.216,20.216,0,0,0-3.331,1.7A29.68,29.68,0,0,0,516.759,206c-.965.8-1.848,1.554-2.639,2.273q.033,20.379.076,40.759a9.884,9.884,0,0,1-.224,1.914,3.817,3.817,0,0,1-1.09,1.963,5.653,5.653,0,0,1-2.606,1.308,11.9,11.9,0,0,1-5.741-.938,9.23,9.23,0,0,1-2.644-2.181,5.582,5.582,0,0,1-1.145-2.29,9.469,9.469,0,0,1-.229-1.794l-.131-46.963a6.04,6.04,0,0,0-.78-3.091,2.824,2.824,0,0,0-2.6-1.347,3.483,3.483,0,0,0-1.636.333,8.593,8.593,0,0,0-1.478,1l-1.2-1.516a31.657,31.657,0,0,1,2.922-2.214,22.722,22.722,0,0,1,3.495-1.935,24.771,24.771,0,0,1,4.04-1.379,9.982,9.982,0,0,1,5,.174,8.281,8.281,0,0,1,2.862,1.837,8.855,8.855,0,0,1,1.739,2.611,15.263,15.263,0,0,1,.943,2.933,16.886,16.886,0,0,1,.376,2.835C514.126,201.176,514.126,201.961,514.126,202.588Z" transform="translate(-224.081 -86.135)" fill="url(#linear-gradient-12)"/>
        <path id="Path_2761" data-name="Path 2761" d="M111.591,61.177a1.047,1.047,0,0,1-.311-.769V46.032a1.554,1.554,0,0,1,.458-1.123,1.494,1.494,0,0,1,1.09-.469h.8a1.472,1.472,0,0,1,.878.289,1.723,1.723,0,0,1,.589.725l5.452,13.63,5.452-13.63a1.723,1.723,0,0,1,.638-.709,1.472,1.472,0,0,1,.878-.289h.8a1.494,1.494,0,0,1,1.09.469,1.554,1.554,0,0,1,.458,1.123v14.36a1.047,1.047,0,0,1-.311.769,1.113,1.113,0,0,1-1.554,0,1.019,1.019,0,0,1-.327-.769V46.73L122.1,60.48a1.636,1.636,0,0,1-.616.736,1.685,1.685,0,0,1-1.854,0,1.636,1.636,0,0,1-.616-.736l-5.545-13.75V60.409a1.019,1.019,0,0,1-.327.769,1.113,1.113,0,0,1-1.554,0Z" transform="translate(-50.608 -20.206)" fill="url(#linear-gradient-13)"/>
        <path id="Path_2762" data-name="Path 2762" d="M152.825,63.619a6.468,6.468,0,0,1-1.636-4.71,7.823,7.823,0,0,1,.627-3.157,5.354,5.354,0,0,1,1.925-2.333,6.183,6.183,0,0,1,6.286-.06,5.338,5.338,0,0,1,1.963,2.213,6.782,6.782,0,0,1,.676,3.026,1.058,1.058,0,0,1-.3.769,1.09,1.09,0,0,1-.807.311h-8.178a3.958,3.958,0,0,0,1.254,2.628,4.318,4.318,0,0,0,2.993.938,7.142,7.142,0,0,0,1.772-.191,7.3,7.3,0,0,0,1.483-.545,1,1,0,0,1,.431-.093.976.976,0,0,1,.676.262.889.889,0,0,1,.289.676,1.03,1.03,0,0,1-.649.883,7.524,7.524,0,0,1-4.214,1.09A6.306,6.306,0,0,1,152.825,63.619ZM160.5,57.9a3.844,3.844,0,0,0-.611-1.979,3.364,3.364,0,0,0-1.336-1.167,3.7,3.7,0,0,0-3.228,0A3.233,3.233,0,0,0,154,55.921a3.947,3.947,0,0,0-.605,1.979Z" transform="translate(-68.759 -23.886)" fill="url(#linear-gradient-14)"/>
        <path id="Path_2763" data-name="Path 2763" d="M177.856,64.834a1.031,1.031,0,0,1-.316-.769V53.706a1.09,1.09,0,0,1,.316-.785,1.014,1.014,0,0,1,.769-.322,1.047,1.047,0,0,1,.78.322,1.09,1.09,0,0,1,.327.785v1.036a4.728,4.728,0,0,1,3.784-2.263h.12a1.009,1.009,0,0,1,.758.311,1.058,1.058,0,0,1,.3.769.971.971,0,0,1-.311.747,1.118,1.118,0,0,1-.8.289h-.12a4.116,4.116,0,0,0-2.121.545,4.874,4.874,0,0,0-1.636,1.554v7.371a1.019,1.019,0,0,1-.327.769,1.09,1.09,0,0,1-.78.316,1.047,1.047,0,0,1-.747-.316Z" transform="translate(-80.743 -23.863)" fill="url(#linear-gradient-15)"/>
        <path id="Path_2764" data-name="Path 2764" d="M194.741,64.834a1.047,1.047,0,0,1-.311-.769V53.706a1.09,1.09,0,0,1,.311-.785,1.03,1.03,0,0,1,.774-.322,1.047,1.047,0,0,1,.78.322,1.091,1.091,0,0,1,.327.785v1.036A4.724,4.724,0,0,1,200.4,52.48h.125a1.019,1.019,0,0,1,.758.311,1.057,1.057,0,0,1,.3.769.97.97,0,0,1-.311.747,1.118,1.118,0,0,1-.8.289h-.12a4.116,4.116,0,0,0-2.121.545,4.819,4.819,0,0,0-1.636,1.554v7.371a1.02,1.02,0,0,1-.327.769,1.086,1.086,0,0,1-1.532,0Z" transform="translate(-88.425 -23.863)" fill="url(#linear-gradient-16)"/>
        <path id="Path_2765" data-name="Path 2765" d="M212.327,70.5a1.03,1.03,0,0,1-.3-.747,1.052,1.052,0,0,1,.071-.382l1.565-4.024-4.531-11.029a1.341,1.341,0,0,1-.093-.458,1.09,1.09,0,0,1,.311-.785,1.014,1.014,0,0,1,.769-.322,1.03,1.03,0,0,1,.616.191,1.117,1.117,0,0,1,.4.48l3.707,9.2,3.784-9.154a1.047,1.047,0,0,1,1.009-.72,1.03,1.03,0,0,1,.774.322,1.09,1.09,0,0,1,.311.785,1.15,1.15,0,0,1-.071.409l-6.575,15.811a1.09,1.09,0,0,1-1.014.747.954.954,0,0,1-.731-.327Z" transform="translate(-95.07 -23.986)" fill="url(#linear-gradient-17)"/>
        <path id="Path_2766" data-name="Path 2766" d="M249.633,60.455a7.6,7.6,0,0,1-3.015-3.015,10.2,10.2,0,0,1,0-9.176,7.551,7.551,0,0,1,3.015-3.009,8.854,8.854,0,0,1,4.329-1.036,10.2,10.2,0,0,1,2.922.387,12.467,12.467,0,0,1,2.568,1.09.965.965,0,0,1,.545.916.889.889,0,0,1-.267.638.916.916,0,0,1-.7.278.926.926,0,0,1-.431-.1,11.206,11.206,0,0,0-2.072-.845,8.631,8.631,0,0,0-2.339-.289,6.886,6.886,0,0,0-3.527.856,5.5,5.5,0,0,0-2.181,2.339,8.031,8.031,0,0,0,0,6.717,5.523,5.523,0,0,0,2.181,2.339,6.886,6.886,0,0,0,3.527.851,8.423,8.423,0,0,0,2.339-.289,10.8,10.8,0,0,0,2.072-.84,1.025,1.025,0,0,1,1.129.169.867.867,0,0,1,.267.649.965.965,0,0,1-.545.916,12.468,12.468,0,0,1-2.568,1.09,10.2,10.2,0,0,1-2.922.387A8.854,8.854,0,0,1,249.633,60.455Z" transform="translate(-111.664 -20.105)" fill="url(#linear-gradient-18)"/>
        <path id="Path_2767" data-name="Path 2767" d="M277.6,60.536a1.047,1.047,0,0,1-.311-.769V44.137a1.09,1.09,0,0,1,.311-.785,1.031,1.031,0,0,1,.769-.322,1.108,1.108,0,0,1,1.112,1.107v6.286a7.977,7.977,0,0,1,1.974-1.636,4.956,4.956,0,0,1,2.5-.6,4.187,4.187,0,0,1,2.3.622,4.073,4.073,0,0,1,1.494,1.712,5.451,5.451,0,0,1,.518,2.382v6.864a1.02,1.02,0,0,1-.327.769,1.112,1.112,0,0,1-1.554,0,1.047,1.047,0,0,1-.311-.769v-6.6q0-2.933-2.65-2.933a3.844,3.844,0,0,0-2.154.622,7.743,7.743,0,0,0-1.794,1.69v7.224a1.019,1.019,0,0,1-.327.769,1.091,1.091,0,0,1-.785.316A1.047,1.047,0,0,1,277.6,60.536Z" transform="translate(-126.11 -19.565)" fill="url(#linear-gradient-19)"/>
        <path id="Path_2768" data-name="Path 2768" d="M304.5,64.834a1.047,1.047,0,0,1-.311-.769V53.706a1.09,1.09,0,0,1,.311-.785,1.03,1.03,0,0,1,.774-.322,1.052,1.052,0,0,1,.78.322,1.091,1.091,0,0,1,.327.785v1.036a4.724,4.724,0,0,1,3.778-2.263h.125a1.02,1.02,0,0,1,.758.311,1.09,1.09,0,0,1,.3.769.954.954,0,0,1-.316.747,1.09,1.09,0,0,1-.791.289h-.12A4.116,4.116,0,0,0,308,55.14a4.82,4.82,0,0,0-1.636,1.554v7.371a1.02,1.02,0,0,1-.327.769,1.086,1.086,0,0,1-1.532,0Z" transform="translate(-138.345 -23.863)" fill="url(#linear-gradient-20)"/>
        <path id="Path_2769" data-name="Path 2769" d="M321.115,45.882a1.167,1.167,0,0,1-.365-.867v-.1a1.167,1.167,0,0,1,.365-.867,1.183,1.183,0,0,1,.867-.36h.142a1.238,1.238,0,0,1,1.232,1.227v.1a1.238,1.238,0,0,1-1.232,1.227h-.147a1.183,1.183,0,0,1-.861-.36Zm.142,14.955a1.047,1.047,0,0,1-.311-.769V49.709a1.09,1.09,0,0,1,.311-.785,1.025,1.025,0,0,1,.774-.322,1.09,1.09,0,0,1,1.09,1.09V60.051a1.02,1.02,0,0,1-.327.769,1.113,1.113,0,0,1-1.537.016Z" transform="translate(-145.876 -19.865)" fill="url(#linear-gradient-21)"/>
        <path id="Path_2770" data-name="Path 2770" d="M331.014,64.28a.91.91,0,0,1-.414-.8.965.965,0,0,1,.267-.671.867.867,0,0,1,.676-.294,1.031,1.031,0,0,1,.431.1,9.564,9.564,0,0,0,1.543.545,7.023,7.023,0,0,0,1.734.2q2.672,0,2.671-1.712a.916.916,0,0,0-.611-.845,12.66,12.66,0,0,0-2.012-.649,18,18,0,0,1-2.35-.7,4.117,4.117,0,0,1-1.586-1.09,2.786,2.786,0,0,1-.665-1.941,3.456,3.456,0,0,1,1.216-2.726,5.13,5.13,0,0,1,3.478-1.058,9.994,9.994,0,0,1,3.495.6.921.921,0,0,1,.518.36.976.976,0,0,1,.18.545.954.954,0,0,1-.278.676.911.911,0,0,1-.687.284,1.3,1.3,0,0,1-.311-.044,9.268,9.268,0,0,0-2.726-.436,3.778,3.778,0,0,0-2.034.469,1.407,1.407,0,0,0-.736,1.216,1.118,1.118,0,0,0,.676,1.063,9.737,9.737,0,0,0,2.094.649,20.77,20.77,0,0,1,2.317.709,3.881,3.881,0,0,1,1.527,1.09,2.988,2.988,0,0,1,.638,2,3.173,3.173,0,0,1-1.216,2.552,5.223,5.223,0,0,1-3.435,1.014A8.968,8.968,0,0,1,331.014,64.28Z" transform="translate(-150.356 -23.931)" fill="url(#linear-gradient-22)"/>
        <path id="Path_2771" data-name="Path 2771" d="M352.65,60.3V52.835h-1.712a.442.442,0,0,1-.322-.131.431.431,0,0,1-.136-.327.545.545,0,0,1,.218-.409l3.271-3.2a.589.589,0,0,1,.409-.218.442.442,0,0,1,.327.142.5.5,0,0,1,.131.338v1.946h2.726a.894.894,0,0,1,.938.938.916.916,0,0,1-.262.66.9.9,0,0,1-.676.278h-2.726v7.257c0,.627.147,1.025.447,1.194a2.23,2.23,0,0,0,1.118.251,3.271,3.271,0,0,0,.965-.142l.2-.049a1.337,1.337,0,0,1,.278,0,.861.861,0,0,1,.605.251.818.818,0,0,1,.262.616.911.911,0,0,1-.545.84,4.738,4.738,0,0,1-2,.436Q352.65,63.483,352.65,60.3Z" transform="translate(-159.398 -22.076)" fill="url(#linear-gradient-23)"/>
        <path id="Path_2772" data-name="Path 2772" d="M370.321,64.817a1.047,1.047,0,0,1-.311-.769V53.689a1.09,1.09,0,0,1,.311-.785,1.025,1.025,0,0,1,.774-.322,1.09,1.09,0,0,1,1.09,1.09v.987a6,6,0,0,1,1.636-1.592,4.433,4.433,0,0,1,2.47-.622,3.756,3.756,0,0,1,2.312.72,4.068,4.068,0,0,1,1.374,1.756,4.841,4.841,0,0,1,4.427-2.475,3.7,3.7,0,0,1,2.257.671A4.072,4.072,0,0,1,388,54.894a5.806,5.806,0,0,1,.436,2.213v6.94a1.03,1.03,0,0,1-.322.769,1.09,1.09,0,0,1-.785.316,1.047,1.047,0,0,1-.769-.316,1.03,1.03,0,0,1-.316-.769v-6.5a3.876,3.876,0,0,0-.545-2.3,2.241,2.241,0,0,0-1.9-.731,3.184,3.184,0,0,0-2.039.638,6.248,6.248,0,0,0-1.434,1.674v7.224a1.014,1.014,0,0,1-.322.769,1.1,1.1,0,0,1-1.876-.774v-6.5a3.817,3.817,0,0,0-.545-2.3,2.235,2.235,0,0,0-1.9-.731,3.173,3.173,0,0,0-2.034.638,6.058,6.058,0,0,0-1.456,1.674v7.224a1.02,1.02,0,0,1-.327.769,1.092,1.092,0,0,1-1.537,0Z" transform="translate(-168.28 -23.846)" fill="url(#linear-gradient-24)"/>
        <path id="Path_2773" data-name="Path 2773" d="M411.052,64.854a3.38,3.38,0,0,1-1.428-1.265,3.462,3.462,0,0,1-.545-1.914,3.364,3.364,0,0,1,1.412-2.84,6.781,6.781,0,0,1,4.127-1.058h2.917v-.2a2.939,2.939,0,0,0-.785-2.29,3.6,3.6,0,0,0-2.442-.7,8.058,8.058,0,0,0-1.636.147,14.685,14.685,0,0,0-1.581.431,1.282,1.282,0,0,1-.311.049.872.872,0,0,1-.627-.262.894.894,0,0,1-.262-.654.932.932,0,0,1,.622-.916,10.6,10.6,0,0,1,4.171-.861,5.452,5.452,0,0,1,2.8.671,4.285,4.285,0,0,1,1.69,1.745,5.114,5.114,0,0,1,.545,2.328v6.815a1.019,1.019,0,0,1-.327.769,1.113,1.113,0,0,1-1.554,0,1.046,1.046,0,0,1-.311-.769v-.627A6.052,6.052,0,0,1,413,65.291,4.5,4.5,0,0,1,411.052,64.854Zm4.83-2.012a5.7,5.7,0,0,0,1.663-1.287V59.533h-2.628c-2.421,0-3.636.632-3.636,1.9a1.772,1.772,0,0,0,.594,1.4,2.906,2.906,0,0,0,1.963.545A4.312,4.312,0,0,0,415.883,62.843Z" transform="translate(-186.048 -23.883)" fill="url(#linear-gradient-25)"/>
        <path id="Path_2774" data-name="Path 2774" d="M434.3,64.29a.921.921,0,0,1-.409-.8.959.959,0,0,1,.262-.671.878.878,0,0,1,.676-.294,1.031,1.031,0,0,1,.431.1,9.756,9.756,0,0,0,1.543.545,7.021,7.021,0,0,0,1.734.2q2.671,0,2.677-1.712a.922.922,0,0,0-.616-.845,12.659,12.659,0,0,0-2.012-.649,18.263,18.263,0,0,1-2.35-.7,4.116,4.116,0,0,1-1.586-1.09,2.786,2.786,0,0,1-.665-1.941,3.473,3.473,0,0,1,1.216-2.726,5.138,5.138,0,0,1,3.484-1.058,9.987,9.987,0,0,1,3.489.6.921.921,0,0,1,.518.36.976.976,0,0,1,.18.545.954.954,0,0,1-.278.676.9.9,0,0,1-.681.284,1.307,1.307,0,0,1-.327-.093,9.22,9.22,0,0,0-2.726-.436,3.816,3.816,0,0,0-2.039.469,1.4,1.4,0,0,0-.731,1.216,1.09,1.09,0,0,0,.671,1.063,9.7,9.7,0,0,0,2.1.643,21,21,0,0,1,2.312.709,3.816,3.816,0,0,1,1.527,1.09,2.988,2.988,0,0,1,.638,2,3.173,3.173,0,0,1-1.2,2.557,5.206,5.206,0,0,1-3.429,1.014A8.974,8.974,0,0,1,434.3,64.29Z" transform="translate(-197.333 -23.94)" fill="url(#linear-gradient-26)"/>
      </g>
    </g>
  </g>
</svg>
