<svg xmlns="http://www.w3.org/2000/svg" width="55.818" height="55.818" viewBox="0 0 55.818 55.818">
  <g id="FB_Margin" transform="translate(-2293 -2743)">
    <g id="Group_1243" data-name="Group 1243" transform="translate(2293 2743)" opacity="0">
      <circle id="Ellipse_245" data-name="Ellipse 245" cx="27.909" cy="27.909" r="27.909" transform="translate(0 0)" fill="#69737b"/>
    </g>
    <g id="Facebook" transform="translate(2295 2745)">
      <circle id="Ellipse_245-2" data-name="Ellipse 245" cx="25.741" cy="25.741" r="25.741" transform="translate(0 0)" fill="#00a4e4"/>
      <path id="Icon_awesome-twitter" data-name="Icon awesome-twitter" d="M27.459,9.576c.019.272.019.544.019.816,0,8.292-6.311,17.847-17.847,17.847A17.726,17.726,0,0,1,0,25.422a12.976,12.976,0,0,0,1.515.078A12.562,12.562,0,0,0,9.3,22.82a6.284,6.284,0,0,1-5.865-4.35,7.91,7.91,0,0,0,1.185.1,6.634,6.634,0,0,0,1.651-.214A6.273,6.273,0,0,1,1.243,12.2v-.08a6.317,6.317,0,0,0,2.835.8A6.282,6.282,0,0,1,2.136,4.526,17.829,17.829,0,0,0,15.069,11.09a7.081,7.081,0,0,1-.155-1.437A6.278,6.278,0,0,1,25.77,5.362a12.349,12.349,0,0,0,3.981-1.515A6.256,6.256,0,0,1,26.993,7.3,12.575,12.575,0,0,0,30.6,6.329a13.483,13.483,0,0,1-3.146,3.243Z" transform="translate(11.068 10.46)" fill="#fff"/>
    </g>
  </g>
</svg>
